<?xml version="1.0" encoding="UTF-8" standalone="no"?>
<svg
   xmlns:dc="http://purl.org/dc/elements/1.1/"
   xmlns:cc="http://creativecommons.org/ns#"
   xmlns:rdf="http://www.w3.org/1999/02/22-rdf-syntax-ns#"
   xmlns:svg="http://www.w3.org/2000/svg"
   xmlns="http://www.w3.org/2000/svg"
   xmlns:sodipodi="http://sodipodi.sourceforge.net/DTD/sodipodi-0.dtd"
   xmlns:inkscape="http://www.inkscape.org/namespaces/inkscape"
   width="255.53096mm"
   height="153.72165mm"
   viewBox="0 0 255.53096 153.72164"
   version="1.1"
   id="svg1821"
   sodipodi:docname="s3asplash.svg"
   inkscape:version="1.0.2 (e86c870879, 2021-01-15, custom)">
  <defs
     id="defs1815" />
  <sodipodi:namedview
     id="base"
     pagecolor="#000000"
     bordercolor="#666666"
     borderopacity="1.0"
     inkscape:pageopacity="1"
     inkscape:pageshadow="2"
     inkscape:zoom="0.7"
     inkscape:cx="337.65918"
     inkscape:cy="456.08294"
     inkscape:document-units="mm"
     inkscape:current-layer="layer1"
     inkscape:document-rotation="0"
     showgrid="false"
     inkscape:window-width="1920"
     inkscape:window-height="1017"
     inkscape:window-x="-8"
     inkscape:window-y="-8"
     inkscape:window-maximized="1" />
  <metadata
     id="metadata1818">
    <rdf:RDF>
      <cc:Work
         rdf:about="">
        <dc:format>image/svg+xml</dc:format>
        <dc:type
           rdf:resource="http://purl.org/dc/dcmitype/StillImage" />
        <dc:title></dc:title>
      </cc:Work>
    </rdf:RDF>
  </metadata>
  <g
     inkscape:label="Layer 1"
     inkscape:groupmode="layer"
     id="layer1"
     transform="translate(-193.59047,-60.459785)">
    <rect
       style="fill:#ffffff;fill-opacity:1;stroke:none;stroke-width:0.477304;stroke-dashoffset:91.5798;stroke-opacity:1;stop-color:#000000"
       id="rect948"
       width="255.53096"
       height="153.72165"
       x="193.59047"
       y="60.459785" />
    <g
       id="g2516"
       transform="matrix(0.35277777,0,0,-0.35277777,144.96712,403.196)">
      <g
         id="g12"
         transform="translate(433.1338,781.7827)">
        <path
           d="M 0,0 -0.519,-3.744 1.646,0 Z"
           style="fill:#f04a23;fill-opacity:1;fill-rule:nonzero;stroke:none"
           id="path14" />
      </g>
      <g
         id="g24"
         transform="translate(537.0244,815.9106)">
        <path
           d="m 0,0 37.246,37.286 h -102.238 -1.318 -0.505 -9.369 -9.457 c -14.184,0 -25.657,-11.527 -25.657,-25.712 v -0.512 c 0,-5.423 1.693,-10.455 4.58,-14.583 0.957,-1.463 2.091,-2.765 3.332,-3.952 3.783,-3.69 8.674,-6.179 14.184,-6.934 0.365,-0.054 0.729,-0.094 1.099,-0.128 0.81,-0.074 1.626,-0.115 2.462,-0.115 h 34.191 c 7.237,0 13.173,-5.882 13.173,-13.112 0,-7.238 -5.936,-13.113 -13.173,-13.113 h -46.568 c -0.006,-0.046 -0.013,-0.094 -0.02,-0.141 -0.35,-2.664 -0.532,-5.382 -0.532,-8.141 0,-2.947 0.202,-5.841 0.607,-8.674 h 46.513 c 16.619,0 30.123,13.449 30.123,30.069 0,7.177 -2.543,13.786 -6.779,18.987 -0.344,0.452 -0.681,0.903 -1.133,1.302 -5.484,6.043 -13.396,9.834 -22.211,9.834 h -34.191 c -4.802,0 -8.7,3.898 -8.7,8.701 v 0.512 c 0,4.803 3.898,8.701 8.7,8.701 h 9.457 v -0.013 h 72.353 l -21.766,-21.8 -2.631,-2.63 7.785,-3.71 3.082,-1.471 c 15.527,-7.405 25.556,-23.29 25.556,-40.476 0,-24.707 -20.099,-44.806 -44.806,-44.806 -19.54,0 -36.201,12.572 -42.305,30.055 h -17.752 c 6.63,-27 31.046,-47.087 60.057,-47.087 34.095,0 61.831,27.743 61.831,61.838 C 25.22,-30.056 15.608,-11.534 0,0"
           style="fill:#263a95;fill-opacity:1;fill-rule:nonzero;stroke:none"
           id="path26" />
      </g>
      <g
         id="g28"
         transform="translate(428.2168,804.311)">
        <path
           d="m 0,0 -56.064,-97.107 h 19.506 l 40.956,70.835 2.165,3.744 8.026,13.881 C 9.375,-7.237 4.641,-4.533 0.715,-0.702 0.472,-0.472 0.236,-0.236 0,0 M 32.12,55.632 H 51.754 L 71.78,90.274 91.819,55.632 H 111.44 L 71.78,124.33 Z M 130.083,23.351 118.799,12.053 c 11.258,-10.489 18.717,-24.504 21.132,-39.606 l 40.226,-69.554 h 19.473 z"
           style="fill:#f04a23;fill-opacity:1;fill-rule:nonzero;stroke:none"
           id="path30" />
      </g>
      <g
         id="g32"
         transform="translate(228.7588,667.5522)">
        <path
           d="m 0,0 c -1.451,2.419 -5.443,4.717 -10.04,4.717 -5.927,0 -8.77,-2.479 -8.77,-5.624 0,-3.689 4.355,-4.718 9.436,-5.322 8.829,-1.089 17.055,-3.387 17.055,-13.487 0,-9.435 -8.347,-13.488 -17.781,-13.488 -8.649,0 -15.301,2.662 -18.446,10.403 l 6.652,3.447 c 1.875,-4.656 6.774,-6.713 11.915,-6.713 5.02,0 9.737,1.754 9.737,6.351 0,3.991 -4.174,5.624 -9.798,6.229 -8.648,1.028 -16.632,3.326 -16.632,12.822 0,8.708 8.589,12.277 16.39,12.337 6.593,0 13.427,-1.874 16.633,-8.406 z"
           style="fill:#f04a23;fill-opacity:1;fill-rule:nonzero;stroke:none"
           id="path34" />
      </g>
      <g
         id="g36"
         transform="translate(277.2061,635.4375)">
        <path
           d="M 0,0 H -31.692 V 42.336 H 0 V 34.595 H -23.769 V 24.857 H -0.847 V 17.418 H -23.769 V 7.862 H 0 Z"
           style="fill:#f04a23;fill-opacity:1;fill-rule:nonzero;stroke:none"
           id="path38" />
      </g>
      <g
         id="g40"
         transform="translate(323.2935,666.1011)">
        <path
           d="m 0,0 -13.79,-18.386 h -1.572 L -28.848,0.06 v -30.784 h -7.984 v 42.336 h 9.193 L -14.394,-6.593 -1.149,11.612 H 7.983 V -30.724 H 0 Z"
           style="fill:#f04a23;fill-opacity:1;fill-rule:nonzero;stroke:none"
           id="path42" />
      </g>
      <path
         d="m 341.865,677.773 h 7.922 v -42.336 h -7.922 z"
         style="fill:#f04a23;fill-opacity:1;fill-rule:nonzero;stroke:none"
         id="path44" />
      <path
         d="m 359.466,658.541 h 22.317 v -6.774 h -22.317 z"
         style="fill:#f04a23;fill-opacity:1;fill-rule:nonzero;stroke:none"
         id="path46" />
      <g
         id="g48"
         transform="translate(417.1655,667.5522)">
        <path
           d="m 0,0 c -1.452,2.419 -5.443,4.717 -10.04,4.717 -5.927,0 -8.77,-2.479 -8.77,-5.624 0,-3.689 4.355,-4.718 9.435,-5.322 8.83,-1.089 17.056,-3.387 17.056,-13.487 0,-9.435 -8.347,-13.488 -17.782,-13.488 -8.649,0 -15.301,2.662 -18.445,10.403 l 6.652,3.447 c 1.874,-4.656 6.773,-6.713 11.915,-6.713 5.019,0 9.737,1.754 9.737,6.351 0,3.991 -4.174,5.624 -9.798,6.229 -8.649,1.028 -16.632,3.326 -16.632,12.822 0,8.708 8.589,12.277 16.39,12.337 6.593,0 13.426,-1.874 16.632,-8.406 z"
           style="fill:#f04a23;fill-opacity:1;fill-rule:nonzero;stroke:none"
           id="path50" />
      </g>
      <g
         id="g52"
         transform="translate(471.1763,677.7129)">
        <path
           d="m 0,0 v -24.252 c 0,-12.519 -7.681,-18.931 -18.325,-18.931 -10.161,0 -18.809,6.169 -18.809,18.931 V 0 h 7.923 v -24.252 c 0,-7.621 4.354,-11.673 10.946,-11.673 6.593,0 10.343,4.415 10.343,11.673 V 0 Z"
           style="fill:#f04a23;fill-opacity:1;fill-rule:nonzero;stroke:none"
           id="path54" />
      </g>
      <g
         id="g56"
         transform="translate(489.9888,655.2144)">
        <path
           d="m 0,0 h 11.975 c 10.222,0 10.161,14.999 0,14.999 H 0 Z M 11.975,-7.318 H 0 v -12.459 h -7.983 v 42.336 c 6.652,0 13.306,0.061 19.958,0.061 20.685,0 20.745,-29.938 0,-29.938"
           style="fill:#f04a23;fill-opacity:1;fill-rule:nonzero;stroke:none"
           id="path58" />
      </g>
      <g
         id="g60"
         transform="translate(557.4873,635.4375)">
        <path
           d="M 0,0 H -31.692 V 42.336 H 0 V 34.595 H -23.77 V 24.857 H -0.848 V 17.418 H -23.77 V 7.862 H 0 Z"
           style="fill:#f04a23;fill-opacity:1;fill-rule:nonzero;stroke:none"
           id="path62" />
      </g>
      <g
         id="g64"
         transform="translate(574.7266,670.334)">
        <path
           d="m 0,0 v -13.547 h 12.156 c 5.081,0 7.258,3.386 7.258,6.774 C 19.414,-3.387 17.177,0 12.156,0 Z M 29.514,-34.896 H 20.019 L 7.681,-20.744 H 0 V -34.896 H -7.983 V 7.5 c 6.713,0 13.426,-0.061 20.139,-0.061 9.98,-0.06 15.241,-6.713 15.241,-14.031 0,-5.806 -2.661,-11.673 -10.705,-13.305 l 12.822,-14.455 z"
           style="fill:#f04a23;fill-opacity:1;fill-rule:nonzero;stroke:none"
           id="path66" />
      </g>
      <g
         id="g68"
         transform="translate(633.5156,635.2563)">
        <path
           d="m 0,0 h -8.285 l -17.601,42.517 h 8.951 L -4.173,9.556 8.648,42.517 H 17.6 Z"
           style="fill:#f04a23;fill-opacity:1;fill-rule:nonzero;stroke:none"
           id="path70" />
      </g>
      <path
         d="m 659.102,677.773 h 7.922 v -42.336 h -7.922 z"
         style="fill:#f04a23;fill-opacity:1;fill-rule:nonzero;stroke:none"
         id="path72" />
      <g
         id="g74"
         transform="translate(704.8857,667.5522)">
        <path
           d="m 0,0 c -1.452,2.419 -5.444,4.717 -10.04,4.717 -5.928,0 -8.77,-2.479 -8.77,-5.624 0,-3.689 4.354,-4.718 9.435,-5.322 8.83,-1.089 17.056,-3.387 17.056,-13.487 0,-9.435 -8.347,-13.488 -17.782,-13.488 -8.648,0 -15.301,2.662 -18.447,10.403 l 6.654,3.447 c 1.874,-4.656 6.774,-6.713 11.915,-6.713 5.019,0 9.736,1.754 9.736,6.351 0,3.991 -4.173,5.624 -9.797,6.229 -8.648,1.028 -16.632,3.326 -16.632,12.822 0,8.708 8.588,12.277 16.39,12.337 6.593,0 13.427,-1.874 16.632,-8.406 z"
           style="fill:#f04a23;fill-opacity:1;fill-rule:nonzero;stroke:none"
           id="path76" />
      </g>
      <g
         id="g78"
         transform="translate(753.333,635.4375)">
        <path
           d="M 0,0 H -31.692 V 42.336 H 0 V 34.595 H -23.77 V 24.857 H -0.848 V 17.418 H -23.77 V 7.862 H 0 Z"
           style="fill:#f04a23;fill-opacity:1;fill-rule:nonzero;stroke:none"
           id="path80" />
      </g>
      <g
         id="g82"
         transform="translate(769.9072,643.1187)">
        <path
           d="M 0,0 H 8.709 C 18.325,0 22.135,7.016 21.954,13.91 21.772,20.502 17.901,27.095 8.709,27.095 H 0 Z M 29.876,13.85 C 30.058,3.145 23.526,-7.681 8.709,-7.681 H -7.923 V 34.655 H 8.709 c 14.515,0 20.986,-10.342 21.167,-20.805"
           style="fill:#f04a23;fill-opacity:1;fill-rule:nonzero;stroke:none"
           id="path84" />
      </g>
      <g
         id="g86"
         transform="translate(251.7207,617.4146)">
        <path
           d="m 0,0 c -0.799,1.331 -2.994,2.595 -5.522,2.595 -3.26,0 -4.824,-1.364 -4.824,-3.094 0,-2.029 2.396,-2.595 5.19,-2.928 4.857,-0.598 9.381,-1.862 9.381,-7.418 0,-5.189 -4.591,-7.418 -9.78,-7.418 -4.758,0 -8.417,1.464 -10.147,5.722 l 3.66,1.896 c 1.031,-2.562 3.726,-3.692 6.553,-3.692 2.761,0 5.356,0.964 5.356,3.492 0,2.196 -2.295,3.094 -5.389,3.427 -4.757,0.565 -9.148,1.829 -9.148,7.052 0,4.79 4.724,6.753 9.015,6.786 3.626,0 7.385,-1.031 9.148,-4.624 z"
           style="fill:#263a95;fill-opacity:1;fill-rule:nonzero;stroke:none"
           id="path88" />
      </g>
      <g
         id="g90"
         transform="translate(285.0259,599.7505)">
        <path
           d="M 0,0 H -17.432 V 23.286 H 0 V 19.028 H -13.073 V 13.672 H -0.466 V 9.581 H -13.073 V 4.325 H 0 Z"
           style="fill:#263a95;fill-opacity:1;fill-rule:nonzero;stroke:none"
           id="path92" />
      </g>
      <g
         id="g94"
         transform="translate(317.0332,616.6162)">
        <path
           d="m 0,0 -7.585,-10.113 h -0.864 l -7.419,10.146 v -16.932 h -4.391 V 6.387 h 5.056 L -7.917,-3.626 -0.632,6.387 H 4.391 V -16.899 H 0 Z"
           style="fill:#263a95;fill-opacity:1;fill-rule:nonzero;stroke:none"
           id="path96" />
      </g>
      <g
         id="g98"
         transform="translate(344.3188,618.146)">
        <path
           d="M 0,0 -4.325,-9.913 H 4.324 Z M 6.087,-14.004 H -6.087 l -1.996,-4.392 H -12.84 L -2.395,4.891 H 2.396 L 12.84,-18.396 H 8.05 Z"
           style="fill:#263a95;fill-opacity:1;fill-rule:nonzero;stroke:none"
           id="path100" />
      </g>
      <g
         id="g102"
         transform="translate(382.7803,623.0698)">
        <path
           d="M 0,0 H 4.391 V -23.319 H 1.663 v -0.034 l -12.242,15.735 v -15.701 h -4.391 v 23.286 h 3.56 L 0,-14.471 Z"
           style="fill:#263a95;fill-opacity:1;fill-rule:nonzero;stroke:none"
           id="path104" />
      </g>
      <g
         id="g106"
         transform="translate(405.5405,619.0444)">
        <path
           d="M 0,0 H -7.385 V 3.992 H 11.776 V 0 H 4.391 V -19.294 H 0 Z"
           style="fill:#263a95;fill-opacity:1;fill-rule:nonzero;stroke:none"
           id="path108" />
      </g>
      <path
         d="m 428.334,623.037 h 4.357 v -23.286 h -4.357 z"
         style="fill:#263a95;fill-opacity:1;fill-rule:nonzero;stroke:none"
         id="path110" />
      <g
         id="g112"
         transform="translate(465.6611,602.6782)">
        <path
           d="m 0,0 c -2.395,-2.362 -5.489,-3.459 -8.849,-3.459 -8.649,0 -12.308,5.954 -12.341,12.008 -0.033,6.087 3.925,12.275 12.341,12.275 3.161,0 6.154,-1.198 8.55,-3.559 l -2.928,-2.828 c -1.53,1.497 -3.593,2.195 -5.622,2.195 -5.622,0 -8.05,-4.191 -8.017,-8.083 0.034,-3.859 2.262,-7.884 8.017,-7.884 2.029,0 4.325,0.832 5.855,2.362 z"
           style="fill:#263a95;fill-opacity:1;fill-rule:nonzero;stroke:none"
           id="path114" />
      </g>
      <g
         id="g116"
         transform="translate(500.8979,618.146)">
        <path
           d="M 0,0 -4.324,-9.913 H 4.325 Z M 6.088,-14.004 H -6.087 l -1.996,-4.392 H -12.84 L -2.395,4.891 H 2.396 L 12.84,-18.396 H 8.05 Z"
           style="fill:#263a95;fill-opacity:1;fill-rule:nonzero;stroke:none"
           id="path118" />
      </g>
      <g
         id="g120"
         transform="translate(539.3604,623.0698)">
        <path
           d="M 0,0 H 4.392 V -23.319 H 1.663 v -0.034 l -12.242,15.735 v -15.701 h -4.391 v 23.286 h 3.561 L 0,-14.471 Z"
           style="fill:#263a95;fill-opacity:1;fill-rule:nonzero;stroke:none"
           id="path122" />
      </g>
      <g
         id="g124"
         transform="translate(571.4014,623.0698)">
        <path
           d="M 0,0 H 4.392 V -23.319 H 1.663 v -0.034 l -12.242,15.735 v -15.701 h -4.391 v 23.286 h 3.561 L 0,-14.471 Z"
           style="fill:#263a95;fill-opacity:1;fill-rule:nonzero;stroke:none"
           id="path126" />
      </g>
      <g
         id="g128"
         transform="translate(591.7656,611.1606)">
        <path
           d="m 0,0 c 0.101,-3.826 2.163,-7.917 7.652,-7.917 5.489,0 7.551,4.125 7.618,7.95 C 15.336,3.958 13.141,8.35 7.652,8.35 2.163,8.35 -0.099,3.925 0,0 m 19.594,0.1 c -0.067,-6.021 -3.758,-12.042 -11.942,-12.042 -8.183,0 -11.976,5.888 -11.976,12.008 0,6.121 3.926,12.275 11.976,12.275 8.017,0 12.009,-6.154 11.942,-12.241"
           style="fill:#263a95;fill-opacity:1;fill-rule:nonzero;stroke:none"
           id="path130" />
      </g>
      <g
         id="g132"
         transform="translate(627.5684,619.0444)">
        <path
           d="M 0,0 H -7.386 V 3.992 H 11.775 V 0 H 4.391 V -19.294 H 0 Z"
           style="fill:#263a95;fill-opacity:1;fill-rule:nonzero;stroke:none"
           id="path134" />
      </g>
      <g
         id="g136"
         transform="translate(660.7725,618.146)">
        <path
           d="M 0,0 -4.324,-9.913 H 4.324 Z M 6.088,-14.004 H -6.087 l -1.996,-4.392 h -4.758 L -2.395,4.891 h 4.791 l 10.445,-23.287 h -4.79 z"
           style="fill:#263a95;fill-opacity:1;fill-rule:nonzero;stroke:none"
           id="path138" />
      </g>
      <g
         id="g140"
         transform="translate(686.1279,619.0444)">
        <path
           d="M 0,0 H -7.386 V 3.992 H 11.775 V 0 H 4.391 V -19.294 H 0 Z"
           style="fill:#263a95;fill-opacity:1;fill-rule:nonzero;stroke:none"
           id="path142" />
      </g>
      <g
         id="g144"
         transform="translate(712.1787,611.1606)">
        <path
           d="m 0,0 c 0.101,-3.826 2.163,-7.917 7.652,-7.917 5.489,0 7.551,4.125 7.618,7.95 C 15.336,3.958 13.141,8.35 7.652,8.35 2.163,8.35 -0.099,3.925 0,0 m 19.594,0.1 c -0.067,-6.021 -3.759,-12.042 -11.942,-12.042 -8.183,0 -11.976,5.888 -11.976,12.008 0,6.121 3.926,12.275 11.976,12.275 8.017,0 12.009,-6.154 11.942,-12.241"
           style="fill:#263a95;fill-opacity:1;fill-rule:nonzero;stroke:none"
           id="path146" />
      </g>
      <g
         id="g148"
         transform="translate(747.748,618.9448)">
        <path
           d="m 0,0 v -7.452 h 6.686 c 2.794,0 3.992,1.863 3.992,3.726 C 10.678,-1.863 9.447,0 6.686,0 Z M 16.232,-19.194 H 11.011 L 4.225,-11.41 H 0 v -7.784 H -4.391 V 4.125 c 3.692,0 7.384,-0.033 11.077,-0.033 5.49,-0.033 8.382,-3.693 8.382,-7.718 0,-3.193 -1.463,-6.42 -5.887,-7.318 l 7.051,-7.951 z"
           style="fill:#263a95;fill-opacity:1;fill-rule:nonzero;stroke:none"
           id="path150" />
      </g>
      <g
         id="g152"
         transform="translate(307.5337,587.7451)">
        <path
           d="m 0,0 c -0.396,0.661 -1.485,1.288 -2.74,1.288 -1.617,0 -2.393,-0.677 -2.393,-1.536 0,-1.006 1.189,-1.287 2.575,-1.452 2.41,-0.297 4.654,-0.924 4.654,-3.68 0,-2.575 -2.278,-3.681 -4.852,-3.681 -2.36,0 -4.176,0.726 -5.035,2.839 l 1.816,0.941 c 0.512,-1.271 1.849,-1.832 3.252,-1.832 1.369,0 2.657,0.479 2.657,1.733 0,1.089 -1.139,1.535 -2.674,1.7 -2.36,0.281 -4.538,0.908 -4.538,3.499 0,2.376 2.343,3.35 4.472,3.367 1.799,0 3.664,-0.512 4.539,-2.294 z"
           style="fill:#263a95;fill-opacity:1;fill-rule:nonzero;stroke:none"
           id="path154" />
      </g>
      <g
         id="g156"
         transform="translate(324.0557,578.9814)">
        <path
           d="M 0,0 H -8.648 V 11.553 H 0 V 9.441 H -6.486 V 6.783 h 6.255 V 4.753 H -6.486 V 2.146 H 0 Z"
           style="fill:#263a95;fill-opacity:1;fill-rule:nonzero;stroke:none"
           id="path158" />
      </g>
      <g
         id="g160"
         transform="translate(339.9341,587.3491)">
        <path
           d="m 0,0 -3.763,-5.017 h -0.429 l -3.681,5.034 v -8.401 h -2.178 V 3.169 h 2.509 l 3.614,-4.968 3.615,4.968 H 2.179 V -8.384 H 0 Z"
           style="fill:#263a95;fill-opacity:1;fill-rule:nonzero;stroke:none"
           id="path162" />
      </g>
      <g
         id="g164"
         transform="translate(353.4697,588.1084)">
        <path
           d="m 0,0 -2.146,-4.918 h 4.292 z m 3.02,-6.949 h -6.041 l -0.99,-2.178 h -2.36 L -1.188,2.426 H 1.188 L 6.371,-9.127 H 3.994 Z"
           style="fill:#263a95;fill-opacity:1;fill-rule:nonzero;stroke:none"
           id="path166" />
      </g>
      <g
         id="g168"
         transform="translate(372.5498,590.5513)">
        <path
           d="M 0,0 H 2.179 V -11.57 H 0.826 v -0.016 l -6.075,7.806 v -7.79 h -2.178 v 11.553 h 1.766 L 0,-7.18 Z"
           style="fill:#263a95;fill-opacity:1;fill-rule:nonzero;stroke:none"
           id="path170" />
      </g>
      <g
         id="g172"
         transform="translate(383.8403,588.5542)">
        <path
           d="M 0,0 H -3.664 V 1.98 H 5.843 V 0 H 2.179 V -9.573 H 0 Z"
           style="fill:#263a95;fill-opacity:1;fill-rule:nonzero;stroke:none"
           id="path174" />
      </g>
      <path
         d="m 395.147,590.535 h 2.162 v -11.553 h -2.162 z"
         style="fill:#263a95;fill-opacity:1;fill-rule:nonzero;stroke:none"
         id="path176" />
      <g
         id="g178"
         transform="translate(413.666,580.4336)">
        <path
           d="m 0,0 c -1.188,-1.171 -2.724,-1.716 -4.39,-1.716 -4.292,0 -6.107,2.954 -6.124,5.958 -0.016,3.02 1.948,6.09 6.124,6.09 1.568,0 3.053,-0.594 4.242,-1.766 L -1.601,7.163 c -0.759,0.743 -1.782,1.089 -2.789,1.089 -2.79,0 -3.994,-2.079 -3.978,-4.01 0.016,-1.914 1.122,-3.912 3.978,-3.912 1.007,0 2.145,0.413 2.905,1.172 z"
           style="fill:#263a95;fill-opacity:1;fill-rule:nonzero;stroke:none"
           id="path180" />
      </g>
      <g
         id="g182"
         transform="translate(428.1421,590.5347)">
        <path
           d="m 0,0 v -9.54 h 5.941 v -2.013 h -8.12 V 0 Z"
           style="fill:#263a95;fill-opacity:1;fill-rule:nonzero;stroke:none"
           id="path184" />
      </g>
      <g
         id="g186"
         transform="translate(444.9282,588.1084)">
        <path
           d="m 0,0 -2.146,-4.918 h 4.292 z m 3.02,-6.949 h -6.041 l -0.99,-2.178 h -2.36 L -1.188,2.426 H 1.188 L 6.371,-9.127 H 3.994 Z"
           style="fill:#263a95;fill-opacity:1;fill-rule:nonzero;stroke:none"
           id="path188" />
      </g>
      <g
         id="g190"
         transform="translate(458.3145,581.0117)">
        <path
           d="m 0,0 h 3.334 c 0.891,0 2.162,0.297 2.162,1.386 0,1.04 -1.271,1.585 -2.162,1.585 H 0 Z m 0,4.885 h 3.334 c 1.37,0 1.815,0.578 1.815,1.238 0,0.528 -0.429,1.419 -1.815,1.419 H 0 Z M 7.312,6.172 C 7.312,5.281 6.882,4.423 5.81,3.944 7.163,3.532 7.658,2.096 7.658,1.37 c 0,-2.575 -1.931,-3.4 -4.324,-3.4 h -5.48 V 9.523 h 5.48 c 2.278,0 3.978,-1.023 3.978,-3.351"
           style="fill:#263a95;fill-opacity:1;fill-rule:nonzero;stroke:none"
           id="path192" />
      </g>
      <g
         id="g194"
         transform="translate(480.2505,578.9814)">
        <path
           d="M 0,0 H -8.648 V 11.553 H 0 V 9.441 H -6.486 V 6.783 h 6.255 V 4.753 H -6.486 V 2.146 H 0 Z"
           style="fill:#263a95;fill-opacity:1;fill-rule:nonzero;stroke:none"
           id="path196" />
      </g>
      <g
         id="g198"
         transform="translate(488.2393,590.5347)">
        <path
           d="m 0,0 v -9.54 h 5.942 v -2.013 h -8.12 V 0 Z"
           style="fill:#263a95;fill-opacity:1;fill-rule:nonzero;stroke:none"
           id="path200" />
      </g>
      <path
         d="m 499.86,590.535 h 2.161 v -11.553 h -2.161 z"
         style="fill:#263a95;fill-opacity:1;fill-rule:nonzero;stroke:none"
         id="path202" />
      <g
         id="g204"
         transform="translate(515.7881,590.5513)">
        <path
           d="M 0,0 H 2.178 V -11.57 H 0.824 v -0.016 l -6.073,7.806 v -7.79 h -2.179 v 11.553 h 1.766 L 0,-7.18 Z"
           style="fill:#263a95;fill-opacity:1;fill-rule:nonzero;stroke:none"
           id="path206" />
      </g>
      <g
         id="g208"
         transform="translate(532.6729,587.7124)">
        <path
           d="m 0,0 c -0.775,0.743 -1.931,1.155 -2.938,1.155 -2.475,0 -3.978,-1.881 -3.978,-4.258 0,-1.898 1.106,-3.862 3.978,-3.862 0.908,0 1.7,0.198 2.608,0.924 v 2.047 h -2.954 v 1.947 h 4.951 v -4.869 c -1.139,-1.304 -2.575,-2.079 -4.605,-2.079 -4.34,0 -6.107,2.855 -6.107,5.892 0,3.251 2.03,6.255 6.107,6.255 1.552,0 3.103,-0.594 4.292,-1.766 z"
           style="fill:#263a95;fill-opacity:1;fill-rule:nonzero;stroke:none"
           id="path210" />
      </g>
      <g
         id="g212"
         transform="translate(557.7783,587.3491)">
        <path
           d="m 0,0 -3.764,-5.017 h -0.429 l -3.68,5.034 v -8.401 h -2.178 V 3.169 h 2.508 l 3.615,-4.968 3.614,4.968 H 2.179 V -8.384 H 0 Z"
           style="fill:#263a95;fill-opacity:1;fill-rule:nonzero;stroke:none"
           id="path214" />
      </g>
      <g
         id="g216"
         transform="translate(571.3145,588.1084)">
        <path
           d="M 0,0 -2.147,-4.918 H 2.145 Z M 3.02,-6.949 H -3.022 L -4.011,-9.127 H -6.372 L -1.189,2.426 H 1.187 L 6.37,-9.127 H 3.994 Z"
           style="fill:#263a95;fill-opacity:1;fill-rule:nonzero;stroke:none"
           id="path218" />
      </g>
      <g
         id="g220"
         transform="translate(585.1621,581.0776)">
        <path
           d="M 0,0 H 2.376 C 5.001,0 6.04,1.914 5.991,3.796 5.941,5.595 4.886,7.394 2.376,7.394 H 0 Z M 8.153,3.779 C 8.202,0.858 6.419,-2.096 2.376,-2.096 H -2.163 V 9.457 h 4.539 c 3.962,0 5.728,-2.822 5.777,-5.678"
           style="fill:#263a95;fill-opacity:1;fill-rule:nonzero;stroke:none"
           id="path222" />
      </g>
      <g
         id="g224"
         transform="translate(607.4932,578.9814)">
        <path
           d="M 0,0 H -8.648 V 11.553 H 0 V 9.441 H -6.485 V 6.783 H -0.23 V 4.753 H -6.485 V 2.146 H 0 Z"
           style="fill:#263a95;fill-opacity:1;fill-rule:nonzero;stroke:none"
           id="path226" />
      </g>
      <g
         id="g228"
         transform="translate(627.8945,587.7451)">
        <path
           d="m 0,0 c -0.396,0.661 -1.485,1.288 -2.739,1.288 -1.618,0 -2.394,-0.677 -2.394,-1.536 0,-1.006 1.189,-1.287 2.574,-1.452 2.411,-0.297 4.655,-0.924 4.655,-3.68 0,-2.575 -2.277,-3.681 -4.853,-3.681 -2.359,0 -4.175,0.726 -5.033,2.839 l 1.814,0.941 c 0.513,-1.271 1.85,-1.832 3.253,-1.832 1.369,0 2.658,0.479 2.658,1.733 0,1.089 -1.14,1.535 -2.674,1.7 -2.362,0.281 -4.539,0.908 -4.539,3.499 0,2.376 2.343,3.35 4.472,3.367 1.799,0 3.664,-0.512 4.539,-2.294 z"
           style="fill:#263a95;fill-opacity:1;fill-rule:nonzero;stroke:none"
           id="path230" />
      </g>
      <path
         d="m 635.818,590.535 h 2.163 v -11.553 h -2.163 z"
         style="fill:#263a95;fill-opacity:1;fill-rule:nonzero;stroke:none"
         id="path232" />
      <g
         id="g234"
         transform="translate(654.2217,587.3491)">
        <path
           d="m 0,0 -3.764,-5.017 h -0.429 l -3.68,5.034 v -8.401 h -2.178 V 3.169 h 2.508 l 3.615,-4.968 3.614,4.968 H 2.179 V -8.384 H 0 Z"
           style="fill:#263a95;fill-opacity:1;fill-rule:nonzero;stroke:none"
           id="path236" />
      </g>
      <g
         id="g238"
         transform="translate(664.7539,584.3784)">
        <path
           d="m 0,0 h 3.268 c 2.789,0 2.772,4.093 0,4.093 H 0 Z M 3.268,-1.997 H 0 v -3.4 H -2.18 V 6.156 c 1.816,0 3.632,0.017 5.448,0.017 5.644,0 5.661,-8.17 0,-8.17"
           style="fill:#263a95;fill-opacity:1;fill-rule:nonzero;stroke:none"
           id="path240" />
      </g>
      <g
         id="g242"
         transform="translate(680.0381,590.5347)">
        <path
           d="m 0,0 v -9.54 h 5.94 v -2.013 H -2.18 V 0 Z"
           style="fill:#263a95;fill-opacity:1;fill-rule:nonzero;stroke:none"
           id="path244" />
      </g>
      <g
         id="g246"
         transform="translate(700.2568,578.9814)">
        <path
           d="M 0,0 H -8.649 V 11.553 H 0 V 9.441 H -6.486 V 6.783 h 6.255 V 4.753 H -6.486 V 2.146 H 0 Z"
           style="fill:#263a95;fill-opacity:1;fill-rule:nonzero;stroke:none"
           id="path248" />
      </g>
    </g>
  </g>
</svg>
