<svg width="102" height="21" viewBox="0 0 102 21" fill="none" xmlns="http://www.w3.org/2000/svg">
    <path d="M19.8241 15.0383C19.7119 14.9237 19.667 14.7634 19.667 14.5801V5.25581C19.667 5.07253 19.7119 4.93507 19.8241 4.82052C19.9363 4.70598 20.0934 4.66016 20.2729 4.66016H23.7286C24.8058 4.66016 25.6361 4.93507 26.2419 5.462C26.8478 5.98892 27.1395 6.74495 27.1395 7.73007C27.1395 8.71519 26.8478 9.47121 26.2419 10.021C25.6361 10.5709 24.8058 10.8458 23.7286 10.8458H20.8563V14.5801C20.8563 14.7634 20.8114 14.9237 20.6992 15.0383C20.587 15.1528 20.4524 15.1987 20.2729 15.1987C20.0709 15.2216 19.9363 15.1528 19.8241 15.0383ZM23.6164 9.83776C25.1873 9.83776 25.9502 9.12756 25.9502 7.75298C25.9502 6.37839 25.1648 5.6911 23.6164 5.6911H20.8563V9.86067H23.6164V9.83776Z" fill="white"/>
    <path d="M34.41 13.5954C34.4773 13.687 34.5222 13.8016 34.5222 13.939C34.5222 14.191 34.3427 14.4201 34.0061 14.6263C33.647 14.8325 33.288 14.9929 32.9065 15.0845C32.525 15.1991 32.1436 15.2449 31.7621 15.2449C30.6625 15.2449 29.8098 14.9241 29.159 14.2598C28.5307 13.5954 28.1941 12.679 28.1941 11.5106C28.1941 10.7775 28.3287 10.1131 28.6205 9.54034C28.9122 8.9676 29.2937 8.53231 29.8098 8.21157C30.3259 7.89084 30.9093 7.73047 31.5601 7.73047C32.4802 7.73047 33.2207 8.0283 33.7592 8.64686C34.2978 9.26542 34.5671 10.0902 34.5671 11.144C34.5671 11.3502 34.5222 11.4877 34.4549 11.5793C34.3876 11.671 34.2529 11.7168 34.0734 11.7168H29.3834C29.4732 13.4121 30.2586 14.2827 31.7621 14.2827C32.1436 14.2827 32.4577 14.2368 32.727 14.1223C32.9963 14.0077 33.288 13.8703 33.6022 13.687C33.849 13.5496 34.0285 13.4579 34.1183 13.4579C34.2305 13.4579 34.3427 13.5037 34.41 13.5954ZM30.1015 9.26542C29.72 9.65489 29.5181 10.2276 29.4507 10.9378H33.5797C33.5573 10.2047 33.3778 9.63198 33.0412 9.24251C32.7046 8.85305 32.2333 8.64686 31.605 8.64686C30.9767 8.66977 30.4605 8.85305 30.1015 9.26542Z" fill="white"/>
    <path d="M40.4464 8.26006C40.4464 8.42043 40.4015 8.53498 40.3117 8.64953C40.222 8.74117 40.0649 8.8099 39.8629 8.8099L39.4366 8.85572C38.7858 8.92445 38.2921 9.15354 37.978 9.56592C37.6638 9.9783 37.5067 10.4594 37.5067 11.0092V14.629C37.5067 14.8352 37.4618 14.9726 37.3496 15.0643C37.2374 15.1559 37.1028 15.2017 36.9233 15.2017C36.7438 15.2017 36.6091 15.1559 36.4969 15.0414C36.3847 14.9268 36.3398 14.7893 36.3398 14.6061V8.3517C36.3398 8.16842 36.4072 8.00806 36.5194 7.91642C36.6316 7.80187 36.7662 7.75605 36.9457 7.75605C37.1028 7.75605 37.2374 7.80187 37.3496 7.91642C37.4618 8.03097 37.5067 8.16842 37.5067 8.3517V9.17645C37.7087 8.74117 38.0004 8.39752 38.3819 8.19133C38.7634 7.96224 39.1897 7.82478 39.661 7.77896L39.8629 7.75605C40.2444 7.73314 40.4464 7.89351 40.4464 8.26006Z" fill="white"/>
    <path d="M42.4887 14.7867C41.9726 14.4889 41.5911 14.0536 41.2994 13.4808C41.0301 12.9081 40.873 12.2666 40.873 11.5106C40.873 10.7775 41.0077 10.1131 41.2994 9.54034C41.5911 8.9676 41.9951 8.5094 42.5112 8.21157C43.0273 7.89084 43.6107 7.73047 44.2839 7.73047C44.643 7.73047 45.0245 7.77629 45.3835 7.89084C45.7426 8.00539 46.0567 8.14284 46.326 8.34903C46.5055 8.46358 46.6177 8.57813 46.7075 8.69268C46.7748 8.80723 46.8197 8.92178 46.8197 9.08215C46.8197 9.2196 46.7748 9.33415 46.7075 9.42579C46.6402 9.51743 46.5504 9.56325 46.4158 9.56325C46.3484 9.56325 46.2811 9.54034 46.1914 9.49452C46.124 9.4487 46.0567 9.42579 45.9894 9.37997C45.9445 9.33415 45.8996 9.31124 45.8772 9.31124C45.6304 9.15087 45.3835 9.01342 45.1591 8.89887C44.9347 8.80723 44.643 8.76141 44.3288 8.76141C43.6107 8.76141 43.0722 9.01342 42.6683 9.49452C42.2643 9.97563 42.0848 10.6629 42.0848 11.5335C42.0848 12.4041 42.2868 13.0684 42.6683 13.5496C43.0722 14.0307 43.6107 14.2598 44.3288 14.2598C44.6654 14.2598 44.9347 14.2139 45.1816 14.1223C45.4284 14.0307 45.6528 13.8932 45.8996 13.7099C46.0118 13.6412 46.1016 13.5725 46.2138 13.5266C46.3036 13.4808 46.3933 13.4579 46.4606 13.4579C46.5728 13.4579 46.6626 13.5037 46.7299 13.5954C46.7972 13.687 46.8421 13.8016 46.8421 13.939C46.8421 14.0765 46.8197 14.191 46.7299 14.2827C46.6626 14.3972 46.528 14.5118 46.3484 14.6263C46.0792 14.8096 45.7426 14.97 45.3611 15.0845C44.9796 15.1991 44.5981 15.2449 44.1942 15.2449C43.5883 15.2449 42.9824 15.0845 42.4887 14.7867Z" fill="white"/>
    <path d="M54.0455 13.5954C54.1128 13.687 54.1577 13.8016 54.1577 13.939C54.1577 14.191 53.9782 14.4201 53.6416 14.6263C53.2825 14.8325 52.9235 14.9929 52.542 15.0845C52.1605 15.1991 51.779 15.2449 51.3976 15.2449C50.298 15.2449 49.4453 14.9241 48.7945 14.2598C48.1662 13.5954 47.8296 12.679 47.8296 11.5106C47.8296 10.7775 47.9642 10.1131 48.256 9.54034C48.5477 8.9676 48.9292 8.53231 49.4453 8.21157C49.9614 7.89084 50.5448 7.73047 51.1956 7.73047C52.1156 7.73047 52.8562 8.0283 53.3947 8.64686C53.9333 9.26542 54.2026 10.0902 54.2026 11.144C54.2026 11.3502 54.1577 11.4877 54.0904 11.5793C54.0231 11.671 53.8884 11.7168 53.7089 11.7168H49.0189C49.1087 13.4121 49.8941 14.2827 51.3976 14.2827C51.779 14.2827 52.0932 14.2368 52.3625 14.1223C52.6318 14.0077 52.9235 13.8703 53.2377 13.687C53.4845 13.5496 53.664 13.4579 53.7538 13.4579C53.8884 13.4579 53.9782 13.5037 54.0455 13.5954ZM49.737 9.26542C49.3555 9.65489 49.1536 10.2276 49.0862 10.9378H53.2152C53.1928 10.2047 53.0133 9.63198 52.6767 9.24251C52.3401 8.85305 51.8688 8.64686 51.2405 8.64686C50.6122 8.66977 50.096 8.85305 49.737 9.26542Z" fill="white"/>
    <path d="M61.1587 8.21157C61.63 8.53231 62.0114 8.9676 62.2583 9.54034C62.5276 10.1131 62.6622 10.7775 62.6622 11.5335C62.6622 12.2895 62.5276 12.9539 62.2583 13.5037C61.989 14.0536 61.63 14.4889 61.1587 14.8096C60.6875 15.1074 60.1265 15.2678 59.4981 15.2678C58.9371 15.2678 58.4659 15.1532 58.0395 14.9012C57.6356 14.6492 57.3215 14.3056 57.0971 13.8474V17.3297C57.0971 17.5129 57.0522 17.6504 56.94 17.742C56.8278 17.8566 56.6931 17.9024 56.5136 17.9024C56.3341 17.9024 56.177 17.8566 56.0873 17.742C55.9751 17.6275 55.9302 17.49 55.9302 17.3297V8.34903C55.9302 8.16575 55.9751 8.0283 56.0873 7.91375C56.1995 7.7992 56.3341 7.75338 56.5136 7.75338C56.6931 7.75338 56.8502 7.7992 56.94 7.91375C57.0297 8.0283 57.0971 8.16575 57.0971 8.34903V9.15087C57.299 8.69268 57.6132 8.34903 58.0395 8.09702C58.4435 7.84502 58.9371 7.73047 59.4981 7.73047C60.1489 7.73047 60.6875 7.89084 61.1587 8.21157ZM60.8894 13.5496C61.2709 13.0684 61.4504 12.4041 61.4504 11.5335C61.4504 10.6629 61.2709 9.97563 60.8894 9.49452C60.508 9.01342 59.9694 8.76141 59.2962 8.76141C58.6005 8.76141 58.0844 8.99051 57.7029 9.47161C57.3215 9.95272 57.1419 10.6171 57.1419 11.5106C57.1419 12.4041 57.3215 13.0684 57.7029 13.5496C58.0844 14.0307 58.6005 14.2598 59.2962 14.2598C59.9694 14.2598 60.508 14.0077 60.8894 13.5496Z" fill="white"/>
    <path d="M68.2049 14.7465C68.2049 14.9068 68.1376 15.0443 68.0254 15.1359C67.9132 15.2276 67.7113 15.2505 67.4868 15.2276L67.0829 15.2047C66.2975 15.1359 65.7365 14.9068 65.355 14.4945C64.996 14.0821 64.794 13.4406 64.794 12.6159V8.85866H63.8291C63.672 8.85866 63.5374 8.81284 63.4476 8.7212C63.3579 8.62956 63.313 8.51501 63.313 8.37755C63.313 8.24009 63.3579 8.10263 63.4476 8.01099C63.5374 7.91936 63.672 7.87354 63.8291 7.87354H64.794V6.20112C64.794 6.01785 64.8389 5.85748 64.9511 5.76584C65.0633 5.65129 65.198 5.60547 65.3775 5.60547C65.557 5.60547 65.6916 5.65129 65.8038 5.76584C65.916 5.88039 65.9609 6.01785 65.9609 6.20112V7.87354H67.5766C67.7337 7.87354 67.8459 7.91936 67.9581 8.01099C68.0479 8.10263 68.0927 8.21718 68.0927 8.37755C68.0927 8.51501 68.0479 8.62956 67.9581 8.7212C67.8683 8.81284 67.7337 8.85866 67.5766 8.85866H65.9609V12.6388C65.9609 13.1886 66.0731 13.5781 66.2975 13.8301C66.5219 14.0821 66.8361 14.2195 67.2849 14.2425L67.6888 14.2654C68.0254 14.3112 68.2049 14.4715 68.2049 14.7465Z" fill="white"/>
    <path d="M69.3941 5.98998C69.2594 5.85252 69.1697 5.66924 69.1697 5.44014C69.1697 5.21105 69.237 5.05068 69.3941 4.91322C69.5287 4.77576 69.7307 4.70703 69.9551 4.70703C70.1795 4.70703 70.3814 4.77576 70.5161 4.91322C70.6507 5.05068 70.7405 5.23396 70.7405 5.44014C70.7405 5.66924 70.6732 5.85252 70.5161 5.98998C70.3814 6.12744 70.1795 6.19617 69.9551 6.19617C69.7307 6.19617 69.5287 6.12744 69.3941 5.98998ZM69.5287 15.0622C69.4165 14.9477 69.3716 14.8102 69.3716 14.627V8.34968C69.3716 8.16641 69.4165 8.00604 69.5287 7.9144C69.6409 7.79985 69.7756 7.75403 69.9551 7.75403C70.1346 7.75403 70.2692 7.79985 70.3814 7.9144C70.4936 8.02895 70.5385 8.16641 70.5385 8.34968V14.627C70.5385 14.8331 70.4936 14.9706 70.3814 15.0622C70.2692 15.1539 70.1346 15.1997 69.9551 15.1997C69.7756 15.1997 69.6409 15.1768 69.5287 15.0622Z" fill="white"/>
    <path d="M73.0743 14.9948C72.9621 14.8802 72.9172 14.7657 72.9172 14.5824V5.21231C72.9172 5.02904 72.9621 4.86867 73.0743 4.75412C73.1865 4.63957 73.3212 4.59375 73.5007 4.59375C73.6802 4.59375 73.8373 4.66248 73.927 4.75412C74.0392 4.86867 74.0841 5.02904 74.0841 5.21231V14.1013H78.7965C78.9761 14.1013 79.1107 14.1471 79.2005 14.2388C79.2902 14.3304 79.3351 14.445 79.3351 14.6282C79.3351 14.7886 79.2902 14.9261 79.2005 15.0177C79.1107 15.1093 78.9761 15.1552 78.7965 15.1552H73.4782C73.3212 15.1552 73.1865 15.0864 73.0743 14.9948Z" fill="white"/>
    <path d="M86.1574 10.5722V14.6272C86.1574 14.8105 86.1126 14.948 86.0004 15.0625C85.8882 15.1771 85.7535 15.2229 85.574 15.2229C85.3945 15.2229 85.2598 15.1771 85.1476 15.0625C85.0354 14.948 84.9905 14.8105 84.9905 14.6272V13.917C84.811 14.3523 84.5193 14.6731 84.1378 14.9022C83.7563 15.1313 83.33 15.2458 82.8363 15.2458C82.3875 15.2458 81.9611 15.1542 81.5796 14.9709C81.1982 14.7876 80.884 14.5127 80.6596 14.192C80.4352 13.8483 80.323 13.4818 80.323 13.0694C80.323 12.5195 80.4576 12.1072 80.7269 11.8093C80.9962 11.5115 81.445 11.2824 82.0733 11.145C82.7017 11.0075 83.5544 10.9388 84.6539 10.9388H84.9681V10.4577C84.9681 9.86201 84.8559 9.42673 84.6091 9.15181C84.3622 8.87689 83.9807 8.73944 83.4422 8.73944C82.7914 8.73944 82.1182 8.92271 81.4226 9.28927C81.1533 9.44964 80.9738 9.54128 80.8616 9.54128C80.7494 9.54128 80.6596 9.49546 80.5698 9.40382C80.5025 9.31218 80.4576 9.19763 80.4576 9.06017C80.4576 8.92271 80.5025 8.80816 80.5923 8.69362C80.682 8.57907 80.8167 8.48743 80.9962 8.37288C81.3328 8.16669 81.7143 8.00632 82.1631 7.91468C82.5895 7.80014 83.0158 7.75432 83.4422 7.75432C85.2823 7.73141 86.1574 8.67071 86.1574 10.5722ZM84.452 13.6879C84.8335 13.2756 85.013 12.7716 85.013 12.1301V11.6948H84.7437C83.891 11.6948 83.2402 11.7406 82.7914 11.8093C82.3426 11.8781 82.0284 12.0155 81.8489 12.1759C81.6694 12.3592 81.5572 12.6112 81.5572 12.9319C81.5572 13.3214 81.6918 13.6421 81.9836 13.8941C82.2529 14.1461 82.6119 14.2836 83.0158 14.2836C83.5993 14.3065 84.0705 14.1003 84.452 13.6879Z" fill="white"/>
    <path d="M93.5172 8.19059C93.9884 8.48841 94.3699 8.9237 94.6167 9.49644C94.886 10.0692 95.0206 10.7107 95.0206 11.4667C95.0206 12.2227 94.886 12.8871 94.6167 13.4598C94.3474 14.0326 93.9884 14.4679 93.5172 14.7886C93.0459 15.1093 92.4849 15.2697 91.879 15.2697C91.318 15.2697 90.8468 15.1552 90.4204 14.9032C90.0165 14.6511 89.7023 14.3075 89.4779 13.8493V14.6282C89.4779 14.8115 89.433 14.949 89.3208 15.0635C89.2086 15.1781 89.074 15.2239 88.8945 15.2239C88.715 15.2239 88.5579 15.1781 88.4681 15.0635C88.3559 14.949 88.311 14.8115 88.311 14.6282V5.16649C88.311 5.00613 88.3559 4.86867 88.4681 4.75412C88.5803 4.63957 88.715 4.59375 88.8945 4.59375C89.074 4.59375 89.2311 4.63957 89.3208 4.75412C89.433 4.86867 89.4779 5.00613 89.4779 5.16649V9.1528C89.6799 8.6946 89.9941 8.35096 90.4204 8.09895C90.8243 7.84694 91.318 7.73239 91.879 7.73239C92.5074 7.73239 93.0459 7.89276 93.5172 8.19059ZM93.2479 13.5286C93.6294 13.0475 93.8089 12.3602 93.8089 11.4667C93.8089 10.5961 93.6294 9.93173 93.2479 9.45063C92.8664 8.96952 92.3278 8.74042 91.6546 8.74042C90.959 8.74042 90.4429 8.96952 90.0614 9.45063C89.6799 9.93173 89.5004 10.5961 89.5004 11.4896C89.5004 12.3831 89.6799 13.0475 90.0614 13.5286C90.4429 14.0097 90.959 14.2388 91.6546 14.2388C92.3278 14.2617 92.8664 14.0097 93.2479 13.5286Z" fill="white"/>
    <path d="M97.8933 15.0845C97.4894 14.97 97.1304 14.8325 96.8162 14.6263C96.6367 14.5118 96.5245 14.3972 96.4347 14.2827C96.3674 14.1681 96.3225 14.0536 96.3225 13.8932C96.3225 13.7557 96.3674 13.6641 96.4347 13.5725C96.502 13.4808 96.5918 13.435 96.7264 13.435C96.8386 13.435 97.0182 13.5037 97.2426 13.6641C97.5343 13.8474 97.826 13.9848 98.1177 14.0994C98.4094 14.2139 98.7685 14.2598 99.1948 14.2598C99.711 14.2598 100.137 14.1681 100.407 13.9848C100.698 13.8016 100.833 13.5266 100.833 13.1601C100.833 12.931 100.788 12.7706 100.676 12.6332C100.564 12.4957 100.384 12.3812 100.115 12.2666C99.8456 12.1521 99.4641 12.0604 98.9704 11.9459C98.1177 11.7626 97.5118 11.5106 97.1304 11.1898C96.7713 10.8691 96.5694 10.4338 96.5694 9.9069C96.5694 9.47161 96.6816 9.10506 96.9284 8.78432C97.1528 8.46358 97.4894 8.18866 97.8933 8.00539C98.2972 7.82211 98.7685 7.73047 99.307 7.73047C99.6885 7.73047 100.048 7.77629 100.407 7.89084C100.766 8.00539 101.08 8.14284 101.349 8.32612C101.686 8.55522 101.843 8.80723 101.843 9.05924C101.843 9.19669 101.798 9.28833 101.731 9.37997C101.663 9.47161 101.551 9.51743 101.461 9.51743C101.349 9.51743 101.17 9.42579 100.945 9.26542C100.676 9.08215 100.407 8.94469 100.182 8.85305C99.9354 8.76141 99.6436 8.71559 99.2846 8.71559C98.8358 8.71559 98.4543 8.83014 98.185 9.03633C97.9158 9.24251 97.7587 9.51743 97.7587 9.86108C97.7587 10.0673 97.8036 10.2505 97.9158 10.388C98.028 10.5255 98.185 10.64 98.4319 10.7546C98.6787 10.8691 99.0153 10.9607 99.4641 11.0524C100.115 11.1898 100.631 11.3731 100.99 11.5335C101.349 11.7168 101.618 11.923 101.775 12.1979C101.933 12.4499 102 12.7706 102 13.183C102 13.8016 101.753 14.3056 101.237 14.695C100.721 15.0845 100.048 15.2678 99.1948 15.2678C98.7236 15.2449 98.2972 15.1991 97.8933 15.0845Z" fill="white"/>
    <path d="M11.0501 3.57393C12.0168 3.57393 12.8005 2.77387 12.8005 1.78696C12.8005 0.80005 12.0168 0 11.0501 0C10.0835 0 9.2998 0.80005 9.2998 1.78696C9.2998 2.77387 10.0835 3.57393 11.0501 3.57393Z" fill="white"/>
    <path d="M2.8371 16.1389C2.2761 16.1389 1.73753 15.864 1.42337 15.36C0.884808 14.5582 1.08677 13.4585 1.87217 12.9086L10.4892 6.9292C11.2746 6.37936 12.3517 6.58555 12.8903 7.38739C13.4288 8.18924 13.2269 9.2889 12.4415 9.83874L3.80202 15.8411C3.5103 16.0473 3.1737 16.1389 2.8371 16.1389Z" fill="white"/>
    <path d="M1.71551 10.0318C1.15451 10.0318 0.61595 9.75684 0.301788 9.25282C-0.236774 8.45098 -0.0348131 7.35131 0.750591 6.80147L5.05909 3.80029C5.84449 3.25046 6.92162 3.45665 7.46018 4.25849C7.99874 5.06033 7.79678 6.16 7.01138 6.70984L2.68044 9.71102C2.38872 9.91721 2.05212 10.0318 1.71551 10.0318Z" fill="white"/>
    <path d="M6.02328 20.5661C6.98996 20.5661 7.77361 19.7661 7.77361 18.7791C7.77361 17.7922 6.98996 16.9922 6.02328 16.9922C5.0566 16.9922 4.27295 17.7922 4.27295 18.7791C4.27295 19.7661 5.0566 20.5661 6.02328 20.5661Z" fill="white"/>
</svg>
