<?xml version="1.0" encoding="UTF-8" standalone="no"?>
<!-- Created with Inkscape (http://www.inkscape.org/) -->

<svg
   xmlns:dc="http://purl.org/dc/elements/1.1/"
   xmlns:cc="http://creativecommons.org/ns#"
   xmlns:rdf="http://www.w3.org/1999/02/22-rdf-syntax-ns#"
   xmlns:svg="http://www.w3.org/2000/svg"
   xmlns="http://www.w3.org/2000/svg"
   xmlns:sodipodi="http://sodipodi.sourceforge.net/DTD/sodipodi-0.dtd"
   xmlns:inkscape="http://www.inkscape.org/namespaces/inkscape"
   width="4.5155554mm"
   height="4.5155554mm"
   viewBox="0 0 15.999999 15.999999"
   id="svg5638"
   version="1.1"
   inkscape:version="0.91 r13725"
   sodipodi:docname="counter.svg">
  <defs
     id="defs5640" />
  <sodipodi:namedview
     id="base"
     pagecolor="#ffffff"
     bordercolor="#666666"
     borderopacity="1.0"
     inkscape:pageopacity="0.0"
     inkscape:pageshadow="2"
     inkscape:zoom="15.839192"
     inkscape:cx="-6.2352687"
     inkscape:cy="12.941951"
     inkscape:document-units="px"
     inkscape:current-layer="layer1"
     showgrid="false"
     fit-margin-top="0"
     fit-margin-left="0"
     fit-margin-right="0"
     fit-margin-bottom="0"
     inkscape:window-width="1280"
     inkscape:window-height="736"
     inkscape:window-x="0"
     inkscape:window-y="27"
     inkscape:window-maximized="1" />
  <metadata
     id="metadata5643">
    <rdf:RDF>
      <cc:Work
         rdf:about="">
        <dc:format>image/svg+xml</dc:format>
        <dc:type
           rdf:resource="http://purl.org/dc/dcmitype/StillImage" />
        <dc:title></dc:title>
      </cc:Work>
    </rdf:RDF>
  </metadata>
  <g
     inkscape:label="Calque 1"
     inkscape:groupmode="layer"
     id="layer1"
     transform="translate(-383.42857,-470.07649)">
    <g
       id="g5661"
       transform="translate(0.06822036,-0.19448126)">
      <path
         id="path9296"
         d="m 383.86035,470.77097 0,2 c 0.55228,0 1,0.44772 1,1 0,0.55228 -0.44772,1 -1,1 l 0,1 c 0.55229,0 1,0.44772 1,1 0,0.55228 -0.44771,1 -1,1 l 0,1 c 0.55228,0 1,0.44772 1,1 0,0.55228 -0.44772,1 -1,1 l 0,1 c 0.55228,0 1,0.44772 1,1 0,0.55228 -0.44772,1 -1,1 l 0,2 2,0 c 0,-0.55228 0.44772,-1 1,-1 0.55228,0 1,0.44772 1,1 l 1,0 c 0,-0.55228 0.44772,-1 1,-1 0.55228,0 1,0.44772 1,1 l 1,0 c 0,-0.55228 0.44772,-1 1,-1 0.55229,0 1,0.44772 1,1 l 1,0 c 0,-0.55228 0.44771,-1 1,-1 0.55229,0 1,0.44772 1,1 l 2,0 0,-2 c -0.55229,0 -1,-0.44772 -1,-1 0,-0.55228 0.44771,-1 1,-1 l 0,-1 c -0.55229,0 -1,-0.44772 -1,-1 0,-0.55228 0.44771,-1 1,-1 l 0,-1 c -0.55229,0 -1,-0.44772 -1,-1 0,-0.55228 0.44771,-1 1,-1 l 0,-1 c -0.55229,0 -1,-0.44772 -1,-1 0,-0.55228 0.44771,-1 1,-1 l 0,-2 -2,0 c 0,0.55228 -0.44771,1 -1,1 -0.55229,0 -1,-0.44772 -1,-1 l -1,0 c 0,0.55228 -0.44771,1 -1,1 -0.55228,0 -1,-0.44772 -1,-1 l -1,0 c 0,0.55228 -0.44772,1 -1,1 -0.55228,0 -1,-0.44772 -1,-1 l -1,0 c 0,0.55228 -0.44772,1 -1,1 -0.55228,0 -1,-0.44772 -1,-1 l -2,0 z m 2,2 11,0 0,11 -2,0 0,-2.0625 c 0,-1.0667 -0.77865,-1.98042 -1.71875,-2.25 -0.49379,0.47964 -1.07039,0.6875 -1.78125,0.6875 -0.71086,0 -1.28746,-0.20786 -1.78125,-0.6875 -0.77657,0.27945 -1.71772,0.97676 -1.71875,2.21875 l 0,2.09375 -2,0 0,-11 z"
         style="fill:#000000;fill-opacity:1;stroke:none"
         inkscape:connector-curvature="0" />
      <circle
         r="2.307687"
         cy="477.07864"
         cx="391.36035"
         style="color:#bebebe;display:inline;overflow:visible;visibility:visible;fill:#000000;fill-opacity:1;fill-rule:nonzero;stroke:none;stroke-width:2;marker:none;enable-background:accumulate"
         id="path9298" />
    </g>
  </g>
</svg>
