<?xml version="1.0" encoding="UTF-8" standalone="no"?>
<!-- Created with Inkscape (http://www.inkscape.org/) -->

<svg
   xmlns:dc="http://purl.org/dc/elements/1.1/"
   xmlns:cc="http://creativecommons.org/ns#"
   xmlns:rdf="http://www.w3.org/1999/02/22-rdf-syntax-ns#"
   xmlns:svg="http://www.w3.org/2000/svg"
   xmlns="http://www.w3.org/2000/svg"
   xmlns:sodipodi="http://sodipodi.sourceforge.net/DTD/sodipodi-0.dtd"
   xmlns:inkscape="http://www.inkscape.org/namespaces/inkscape"
   width="4.5155554mm"
   height="4.5155554mm"
   viewBox="0 0 15.999999 15.999999"
   id="svg6582"
   version="1.1"
   inkscape:version="0.91 r13725"
   sodipodi:docname="gis.svg">
  <defs
     id="defs6584" />
  <sodipodi:namedview
     id="base"
     pagecolor="#ffffff"
     bordercolor="#666666"
     borderopacity="1.0"
     inkscape:pageopacity="0.0"
     inkscape:pageshadow="2"
     inkscape:zoom="15.839192"
     inkscape:cx="7.4650072"
     inkscape:cy="11.110812"
     inkscape:document-units="px"
     inkscape:current-layer="layer1"
     showgrid="false"
     fit-margin-top="0"
     fit-margin-left="0"
     fit-margin-right="0"
     fit-margin-bottom="0"
     inkscape:window-width="1280"
     inkscape:window-height="736"
     inkscape:window-x="0"
     inkscape:window-y="27"
     inkscape:window-maximized="1" />
  <metadata
     id="metadata6587">
    <rdf:RDF>
      <cc:Work
         rdf:about="">
        <dc:format>image/svg+xml</dc:format>
        <dc:type
           rdf:resource="http://purl.org/dc/dcmitype/StillImage" />
        <dc:title></dc:title>
      </cc:Work>
    </rdf:RDF>
  </metadata>
  <g
     inkscape:label="Calque 1"
     inkscape:groupmode="layer"
     id="layer1"
     transform="translate(-157.71429,-452.93363)">
    <g
       transform="translate(-2.2857143,-34.066367)"
       inkscape:label="mark-location"
       id="g4635"
       style="display:inline">
      <rect
         style="color:#bebebe;display:inline;overflow:visible;visibility:visible;fill:none;stroke:none;stroke-width:1;marker:none"
         id="rect4637"
         width="16"
         height="16"
         x="160"
         y="487"
         rx="0"
         ry="0" />
      <path
         inkscape:connector-curvature="0"
         style="color:#000000;display:inline;overflow:visible;visibility:visible;fill:#000000;fill-opacity:1;fill-rule:nonzero;stroke:none;stroke-width:1;marker:none;enable-background:new"
         d="m 168.00005,487 c -2.76142,0 -5,2.23858 -5,5 0,0.34518 0.0272,0.67451 0.0937,1 0.37506,2.83961 3.93256,4.92586 4.9375,8.96875 0.98541,-3.98539 4.99777,-6.918 5,-9.96875 l -0.0312,0 c 0,-2.76142 -2.23858,-5 -5,-5 z m 0,2 c 1.65686,0 3,1.34314 3,3 0,1.65686 -1.34314,3 -3,3 -1.65686,0 -3,-1.34314 -3,-3 0,-1.65686 1.34314,-3 3,-3 z"
         id="path45579"
         sodipodi:nodetypes="ssccccssssss" />
    </g>
  </g>
</svg>
