<?xml version="1.0" encoding="UTF-8" standalone="no"?>
<!-- Created with Inkscape (http://www.inkscape.org/) -->

<svg
   xmlns:dc="http://purl.org/dc/elements/1.1/"
   xmlns:cc="http://creativecommons.org/ns#"
   xmlns:rdf="http://www.w3.org/1999/02/22-rdf-syntax-ns#"
   xmlns:svg="http://www.w3.org/2000/svg"
   xmlns="http://www.w3.org/2000/svg"
   xmlns:sodipodi="http://sodipodi.sourceforge.net/DTD/sodipodi-0.dtd"
   xmlns:inkscape="http://www.inkscape.org/namespaces/inkscape"
   width="4.5155554mm"
   height="4.5155554mm"
   viewBox="0 0 15.999999 15.999999"
   id="svg6770"
   version="1.1"
   inkscape:version="0.91 r13725"
   sodipodi:docname="icon-phone.svg">
  <defs
     id="defs6772" />
  <sodipodi:namedview
     id="base"
     pagecolor="#ffffff"
     bordercolor="#666666"
     borderopacity="1.0"
     inkscape:pageopacity="0.0"
     inkscape:pageshadow="2"
     inkscape:zoom="15.839192"
     inkscape:cx="3.3777204"
     inkscape:cy="7.970785"
     inkscape:document-units="px"
     inkscape:current-layer="layer1"
     showgrid="false"
     fit-margin-top="0"
     fit-margin-left="0"
     fit-margin-right="0"
     fit-margin-bottom="0"
     inkscape:window-width="1280"
     inkscape:window-height="736"
     inkscape:window-x="0"
     inkscape:window-y="27"
     inkscape:window-maximized="1" />
  <metadata
     id="metadata6775">
    <rdf:RDF>
      <cc:Work
         rdf:about="">
        <dc:format>image/svg+xml</dc:format>
        <dc:type
           rdf:resource="http://purl.org/dc/dcmitype/StillImage" />
        <dc:title></dc:title>
      </cc:Work>
    </rdf:RDF>
  </metadata>
  <g
     inkscape:label="Calque 1"
     inkscape:groupmode="layer"
     id="layer1"
     transform="translate(-54.85714,-772.93363)">
    <g
       transform="translate(-166.14286,325.93363)"
       style="display:inline"
       id="g8445"
       inkscape:label="phone">
      <path
         sodipodi:nodetypes="ccscsccsccccccccccccccccccccccccccccccccccccccccccc"
         inkscape:connector-curvature="0"
         id="rect5222-6-8"
         d="m 227.0002,448 c -1.00916,0.005 -1,1 -1,1 l 0,11 c 0,1 1,1 1,1 l 4,0 c 1,0 1,-1 1,-1 l 0,-8 c 9e-4,-0.554 -0.446,-1 -1,-1 l -3,0 0,-2 c 0,0 -0.009,-0.99447 -1,-1 z m 0,4 4,0 0,3.03125 -4,-0.0312 z m 0,4 1,0 0,1 1,0 0,-1 1,0 0,1 1,0 0,1 -1,0 0,1 1,0 0,1 -1,0 0,-1 -1,0 0,1 -1,0 0,-1 -1,0 0,-1 1,0 0,-1 -1,0 z m 1,2 0,1 1,0 0,-1 z m 1,0 1,0 0,-1 -1,0 z"
         style="color:#000000;display:inline;overflow:visible;visibility:visible;fill:#000000;fill-opacity:1;fill-rule:nonzero;stroke:none;stroke-width:1px;marker:none;enable-background:accumulate" />
      <g
         inkscape:label="accessories-calculator"
         id="g5214"
         transform="translate(173,49)">
        <rect
           style="color:#bebebe;display:inline;overflow:visible;visibility:visible;opacity:0.51464431;fill:none;stroke:none;stroke-width:3;marker:none;enable-background:accumulate"
           id="rect5216"
           width="16"
           height="16"
           x="48"
           y="398" />
      </g>
    </g>
  </g>
</svg>
