<?xml version="1.0" encoding="UTF-8" standalone="no"?>
<!-- Created with Inkscape (http://www.inkscape.org/) -->

<svg
   xmlns:dc="http://purl.org/dc/elements/1.1/"
   xmlns:cc="http://creativecommons.org/ns#"
   xmlns:rdf="http://www.w3.org/1999/02/22-rdf-syntax-ns#"
   xmlns:svg="http://www.w3.org/2000/svg"
   xmlns="http://www.w3.org/2000/svg"
   xmlns:sodipodi="http://sodipodi.sourceforge.net/DTD/sodipodi-0.dtd"
   xmlns:inkscape="http://www.inkscape.org/namespaces/inkscape"
   width="4.5155563mm"
   height="4.5155573mm"
   viewBox="0 0 16.000003 16.000006"
   id="svg6440"
   version="1.1"
   inkscape:version="0.91 r13725"
   sodipodi:docname="theme.svg">
  <defs
     id="defs6442" />
  <sodipodi:namedview
     id="base"
     pagecolor="#ffffff"
     bordercolor="#666666"
     borderopacity="1.0"
     inkscape:pageopacity="0.0"
     inkscape:pageshadow="2"
     inkscape:zoom="15.839192"
     inkscape:cx="18.958259"
     inkscape:cy="2.1463144"
     inkscape:document-units="px"
     inkscape:current-layer="layer1"
     showgrid="false"
     fit-margin-top="0"
     fit-margin-left="0"
     fit-margin-right="0"
     fit-margin-bottom="0"
     inkscape:window-width="1680"
     inkscape:window-height="986"
     inkscape:window-x="0"
     inkscape:window-y="27"
     inkscape:window-maximized="1" />
  <metadata
     id="metadata6445">
    <rdf:RDF>
      <cc:Work
         rdf:about="">
        <dc:format>image/svg+xml</dc:format>
        <dc:type
           rdf:resource="http://purl.org/dc/dcmitype/StillImage" />
        <dc:title />
      </cc:Work>
    </rdf:RDF>
  </metadata>
  <g
     inkscape:label="Calque 1"
     inkscape:groupmode="layer"
     id="layer1"
     transform="translate(-83.428575,-238.64791)">
    <g
       id="g7689"
       transform="translate(0,0.49767083)">
      <path
         sodipodi:nodetypes="cccccccccssssscsccsscssssssssssssssssssss"
         inkscape:connector-curvature="0"
         id="path9234"
         d="m 91.32051,238.65065 c -2.10985,0.0296 -4.94513,0.80221 -4.89737,3.28068 0.0499,2.58608 2.91741,1.66126 3.15054,2.71829 0.0353,-0.045 0.0883,-0.0821 0.12477,-0.12498 0.19744,-0.2135 0.39517,-0.38769 0.59267,-0.59365 0.31248,-0.35256 0.63627,-0.67899 0.967,-1.03107 1.10674,-1.17814 1.15415,-1.24979 3.79604,-3.24945 -1.03459,-0.62096 -2.25793,-0.96565 -3.29695,-0.99982 -0.1332,-0.005 -0.29604,-0.002 -0.4367,0 z m -1.9028,1.53098 c 0.82692,0 1.49728,0.67146 1.49728,1.49975 0,0.82829 -0.67036,1.49974 -1.49728,1.49974 -0.82693,0 -1.49728,-0.67145 -1.49728,-1.49974 0,-0.82829 0.67035,-1.49975 1.49728,-1.49975 z m 7.26873,0.66156 c -1.41828,2.23337 -2.36679,3.55601 -3.36956,4.58755 -0.63925,0.65758 -1.1631,1.31156 -1.62205,1.78094 -0.83899,0.89023 -1.93776,1.94077 -3.15054,3.09322 0.0633,1.46884 0.81094,2.74635 3.24412,3.2182 3.89808,0.75593 8.02683,-1.82423 7.61118,-7.06129 -0.17842,-2.24796 -1.4052,-4.28134 -2.71315,-5.61862 z m 0.34245,3.80643 c 0.5488,0 0.99819,0.44764 0.99819,0.99983 0,0.55218 -0.44939,0.99983 -0.99819,0.99983 -0.54879,0 -0.99818,-0.44765 -0.99818,-0.99983 0,-0.55219 0.44939,-0.99983 0.99818,-0.99983 z m -0.62386,2.99949 c 0.54879,0 0.99818,0.44764 0.99818,0.99983 0,0.55218 -0.44939,0.99982 -0.99818,0.99982 -0.5488,0 -0.99819,-0.44764 -0.99819,-0.99982 0,-0.55219 0.44939,-0.99983 0.99819,-0.99983 z m -4.99094,1.99965 c 0.54879,0 0.99818,0.44765 0.99818,0.99983 0,0.55219 -0.44939,0.99983 -0.99818,0.99983 -0.5488,0 -0.99819,-0.44764 -0.99819,-0.99983 0,-0.55218 0.44939,-0.99983 0.99819,-0.99983 z m 2.99456,0 c 0.5488,0 0.99819,0.44765 0.99819,0.99983 0,0.55219 -0.44939,0.99983 -0.99819,0.99983 -0.5488,0 -0.99819,-0.44764 -0.99819,-0.99983 0,-0.55218 0.44939,-0.99983 0.99819,-0.99983 z"
         style="fill:#000000;fill-opacity:1;stroke:none" />
      <g
         style="fill:#000000;fill-opacity:1;stroke:none"
         transform="matrix(0.49887914,0,0,0.53785861,97.64663,237.31771)"
         id="g9272">
        <path
           style="fill:#000000;fill-opacity:1;stroke:none"
           sodipodi:nodetypes="csssc"
           id="path9274"
           d="m -28.5,27.5711 c 3.111145,0.0011 2.79359,-3.323359 4.304166,-4.248979 1.750479,-1.072622 3.284496,0.256475 3.590759,1.350292 0.386445,1.380184 -0.234224,3.032938 -2.265024,3.503889 -2.151559,0.498954 -5.335338,0.513772 -5.629901,-0.605202 z"
           inkscape:connector-curvature="0" />
      </g>
      <path
         inkscape:connector-curvature="0"
         id="path9264"
         d="m 97.4656,238.65065 c -1.79965,1.2988 -4.20634,3.30184 -6.11488,5.3335 -0.17324,0.18442 -0.34065,0.36235 -0.50432,0.54703 -0.10346,0.10788 -0.21177,0.19588 -0.3152,0.30771 -0.0653,0.0767 -0.12585,0.16279 -0.18912,0.23932 -1.87306,2.07016 -3.71972,4.68066 -4.91712,6.6327 2.97729,-2.29737 4.91603,-4.16475 6.1464,-5.47026 0.2404,-0.24587 0.52929,-0.56636 0.85103,-0.92311 1.20361,-1.33456 2.92519,-3.43748 5.04321,-6.66689 z"
         style="fill:#000000;fill-opacity:1;stroke:none" />
    </g>
  </g>
</svg>
