<svg id="Calque_1" data-name="Calque 1" xmlns="http://www.w3.org/2000/svg" viewBox="0 0 63.63 63.63"><defs><style>.cls-1{fill:#242d3c;}</style></defs><title>Pictos_v3_EXPORT</title><path class="cls-1" d="M63.63,59.09V4.55A4.54,4.54,0,0,0,59.09,0H4.55A4.54,4.54,0,0,0,0,4.55V59.09a4.54,4.54,0,0,0,4.55,4.54H59.09A4.54,4.54,0,0,0,63.63,59.09ZM50,31.82a4.55,4.55,0,0,1-4.55,4.54H36.36v9.09a4.55,4.55,0,1,1-9.09,0V36.36H18.18a4.55,4.55,0,0,1,0-9.09h9.09V18.18a4.55,4.55,0,0,1,9.09,0v9.09h9.09A4.55,4.55,0,0,1,50,31.82Z"/></svg>