<svg id="Calque_1" data-name="Calque 1" xmlns="http://www.w3.org/2000/svg" viewBox="0 0 63.63 63.63"><defs><style>.cls-1{fill:#242d3c;}</style></defs><title>Pictos_v3_EXPORT</title><path class="cls-1" d="M63.63,59.09V4.55A4.54,4.54,0,0,0,59.09,0H4.55A4.54,4.54,0,0,0,0,4.55V59.09a4.54,4.54,0,0,0,4.55,4.54H59.09A4.54,4.54,0,0,0,63.63,59.09Zm-19-14.42a4.54,4.54,0,0,1-6.43,0l-6.42-6.43-6.43,6.43A4.55,4.55,0,0,1,19,38.24l6.43-6.42L19,25.39A4.55,4.55,0,0,1,25.39,19l6.43,6.43L38.24,19a4.55,4.55,0,0,1,6.43,6.43l-6.43,6.43,6.43,6.42A4.54,4.54,0,0,1,44.67,44.67Z"/></svg>