<svg id="Calque_1" data-name="Calque 1" xmlns="http://www.w3.org/2000/svg" viewBox="0 0 63.95 65.06"><defs><style>.cls-1{fill:#242d3c;}</style></defs><title>Pictos_v3_EXPORT</title><path class="cls-1" d="M48.7,65.06H4.77A4.78,4.78,0,0,1,0,60.29V16.37a4.78,4.78,0,0,1,4.77-4.78H48.7a4.78,4.78,0,0,1,4.77,4.78V60.29A4.78,4.78,0,0,1,48.7,65.06ZM4.77,13.82a2.55,2.55,0,0,0-2.55,2.55V60.29a2.55,2.55,0,0,0,2.55,2.55H48.7a2.55,2.55,0,0,0,2.54-2.55V16.37a2.55,2.55,0,0,0-2.54-2.55Z"/><path class="cls-1" d="M41.38,38.33A3.66,3.66,0,0,1,37.72,42H30.39v7.32a3.66,3.66,0,0,1-7.32,0V42H15.75a3.66,3.66,0,1,1,0-7.32h7.32V27.35a3.66,3.66,0,0,1,7.32,0v7.32h7.33A3.66,3.66,0,0,1,41.38,38.33Z"/><path class="cls-1" d="M11.63,12.72A1.67,1.67,0,0,1,10,11.05V1.67A1.67,1.67,0,0,1,11.63,0h5.56a1.67,1.67,0,0,1,0,3.34H13.3v7.71A1.67,1.67,0,0,1,11.63,12.72Z"/><path class="cls-1" d="M49.53,3.34h-9a1.67,1.67,0,1,1,0-3.34h9a1.67,1.67,0,1,1,0,3.34Zm-16.17,0h-9a1.67,1.67,0,1,1,0-3.34h9a1.67,1.67,0,1,1,0,3.34Z"/><path class="cls-1" d="M62.28,8.9a1.67,1.67,0,0,1-1.67-1.67V3.34H56.72a1.67,1.67,0,0,1,0-3.34h5.56A1.67,1.67,0,0,1,64,1.67V7.23A1.67,1.67,0,0,1,62.28,8.9Z"/><path class="cls-1" d="M62.28,41.24a1.67,1.67,0,0,1-1.67-1.67v-9a1.67,1.67,0,0,1,3.34,0v9A1.67,1.67,0,0,1,62.28,41.24Zm0-16.17a1.67,1.67,0,0,1-1.67-1.67v-9a1.67,1.67,0,0,1,3.34,0v9A1.67,1.67,0,0,1,62.28,25.07Z"/><path class="cls-1" d="M62.28,54H52.9a1.67,1.67,0,0,1,0-3.34h7.71V46.76a1.67,1.67,0,0,1,3.34,0v5.56A1.67,1.67,0,0,1,62.28,54Z"/></svg>