<svg id="Calque_1" data-name="Calque 1" xmlns="http://www.w3.org/2000/svg" viewBox="0 0 40.88 63.11"><defs><style>.cls-1{fill:#242d3c;}</style></defs><title>Pictos_v3_EXPORT</title><path class="cls-1" d="M20.44,55.59a1.12,1.12,0,0,1-.94-.51L10.86,41.62a1.08,1.08,0,0,1-.18-.6V1.11A1.11,1.11,0,0,1,11.79,0H29.08A1.12,1.12,0,0,1,30.2,1.11V41a1.17,1.17,0,0,1-.18.6L21.38,55.08A1.12,1.12,0,0,1,20.44,55.59ZM12.91,40.7l7.53,11.72L28,40.7V2.22H12.91Z"/><path class="cls-1" d="M27.76,41.36H13.12a1.11,1.11,0,1,1,0-2.22H27.76a1.11,1.11,0,1,1,0,2.22Z"/><path class="cls-1" d="M28.83,6.49H12a1.12,1.12,0,0,1,0-2.23H28.83a1.12,1.12,0,1,1,0,2.23Z"/><polygon class="cls-1" points="20.44 54.48 25.53 45.89 15.35 45.89 20.44 54.48"/><path class="cls-1" d="M39.77,63.11H1.11A1.11,1.11,0,0,1,0,62V26.56a1.11,1.11,0,0,1,1.11-1.11H11.85a1.12,1.12,0,0,1,0,2.23H2.22v33.2H38.65V27.68H29a1.12,1.12,0,0,1,0-2.23H39.77a1.11,1.11,0,0,1,1.11,1.11V62A1.11,1.11,0,0,1,39.77,63.11Z"/><rect class="cls-1" x="15.81" y="9.72" width="9.27" height="26.69"/></svg>