<svg id="Calque_1" data-name="Calque 1" xmlns="http://www.w3.org/2000/svg" viewBox="0 0 49.11 57.89"><defs><style>.cls-1{fill:#242d3c;}</style></defs><title>Pictos_v3_EXPORT</title><path class="cls-1" d="M32.4,57.89a1.5,1.5,0,0,1-1.5-1.5V47.94h6.53a3.2,3.2,0,0,0,3.19-3.18V32.2h3.3A2.19,2.19,0,0,0,45.84,31a2,2,0,0,0-.07-2.16l-4.83-7.38a3.3,3.3,0,0,1-.38-1.38A18.67,18.67,0,0,0,21.84,3a1.5,1.5,0,0,1,0-3A21.65,21.65,0,0,1,43.55,19.9V20h0l0,.07,4.69,7.15a5.06,5.06,0,0,1,.17,5.29,5.18,5.18,0,0,1-4.53,2.68h-.3v9.56a6.19,6.19,0,0,1-6.19,6.18H33.9v5.45A1.5,1.5,0,0,1,32.4,57.89ZM9.92,52a1.5,1.5,0,0,1-1.5-1.5V40.1A24.38,24.38,0,0,1,0,21.84a1.5,1.5,0,0,1,3,0A21.36,21.36,0,0,0,10.55,38l.09.1a2.39,2.39,0,0,1,.78,1.73V50.53A1.5,1.5,0,0,1,9.92,52Z"/><path class="cls-1" d="M30.46,11.52a4.9,4.9,0,0,0-4.84-4.39,6.45,6.45,0,0,0-1.55.26A4.91,4.91,0,0,0,20,5.2,4.73,4.73,0,0,0,16,7.45a4.86,4.86,0,0,0-7.16,4,4.62,4.62,0,0,0-3.36,4.39,4.54,4.54,0,0,0,2.13,3.87,4.74,4.74,0,0,0,3.81,5.42,47.62,47.62,0,0,1,.71,7.93,1.19,1.19,0,0,0,1,1.29l.78.19a1.24,1.24,0,0,0,1.55-1.16c.06-2.32.45-6.77,2.06-9.41h.19A4.24,4.24,0,0,0,21,22.22a4.29,4.29,0,0,0,1.61.26A5.12,5.12,0,0,0,26.2,21a5,5,0,0,0,2.19.51,5.2,5.2,0,0,0,5.23-5.22A4.87,4.87,0,0,0,30.46,11.52Z"/></svg>