<svg id="Calque_1" data-name="Calque 1" xmlns="http://www.w3.org/2000/svg" viewBox="0 0 53.63 53.22"><defs><style>.cls-1{fill:#242d3c;}</style></defs><title>Pictos_v3_EXPORT</title><path class="cls-1" d="M48.71,53.22h0L4.75,53a5.35,5.35,0,0,1-3.26-1.06A3.67,3.67,0,0,1,0,49.06L.16,9.4A3.66,3.66,0,0,1,1.68,6.54a5.37,5.37,0,0,1,3.25-1H5l43.93.22a5.35,5.35,0,0,1,3.26,1.06,3.65,3.65,0,0,1,1.49,2.88l-.16,39.66h0A3.66,3.66,0,0,1,52,52.18,5.36,5.36,0,0,1,48.71,53.22ZM4.93,7.73A3.2,3.2,0,0,0,3,8.31a1.47,1.47,0,0,0-.64,1.1L2.22,49.07a1.49,1.49,0,0,0,.63,1.11,3.17,3.17,0,0,0,1.91.6L48.69,51h0a3.19,3.19,0,0,0,1.89-.58,1.45,1.45,0,0,0,.64-1.1l.17-39.66a1.51,1.51,0,0,0-.63-1.11,3.17,3.17,0,0,0-1.91-.6L4.94,7.73ZM52.36,49.32h0Z"/><path class="cls-1" d="M14.47,15A2.5,2.5,0,0,1,12,12.5V2.5a2.5,2.5,0,1,1,5,0v10A2.5,2.5,0,0,1,14.47,15Z"/><path class="cls-1" d="M39.47,15A2.5,2.5,0,0,1,37,12.5V2.5a2.5,2.5,0,0,1,5,0v10A2.5,2.5,0,0,1,39.47,15Z"/><rect class="cls-1" x="1.47" y="21" width="50.5" height="3"/><path class="cls-1" d="M22.67,43.83,20.46,40.7l-1.84,3.13h-4.3l4-6.2-4.13-5.84h4.47l2.13,3,1.77-3h4.3l-3.9,6.09,4.22,5.95Z"/><path class="cls-1" d="M35.32,43.83,33.11,40.7l-1.84,3.13H27l4-6.2L26.8,31.79h4.47l2.13,3,1.77-3h4.3l-3.9,6.09,4.22,5.95Z"/></svg>