<svg id="Calque_1" data-name="Calque 1" xmlns="http://www.w3.org/2000/svg" viewBox="0 0 53.5 44.15"><defs><style>.cls-1{fill:#242d3c;}</style></defs><title>Pictos_v3_EXPORT</title><path class="cls-1" d="M44.44,44.15H1.5A1.5,1.5,0,0,1,0,42.65V12.51A1.5,1.5,0,0,1,1.5,11H44.44a1.5,1.5,0,0,1,1.5,1.5V42.65A1.5,1.5,0,0,1,44.44,44.15ZM3,41.15H42.94V14H3Z"/><path class="cls-1" d="M52,38.59a1.5,1.5,0,0,1-1.5-1.5V3H24.13V6a1.5,1.5,0,0,1-1.5,1.5H4.84a1.5,1.5,0,0,1,0-3H21.13V1.5A1.5,1.5,0,0,1,22.63,0H52a1.5,1.5,0,0,1,1.5,1.5V37.09A1.5,1.5,0,0,1,52,38.59Z"/></svg>