<svg xmlns="http://www.w3.org/2000/svg" viewBox="0 0 53.5 44.15">
  <defs><style>.cls-1{fill:#242d3c;}</style></defs>
  <path d="M 44.44,44.15 H 1.5 C 0.67157288,44.15 0,43.478427 0,42.65 V 12.51 C -0.00554899,11.67767 0.66765187,10.999982 1.5,11 h 42.94 c 0.828427,0 1.5,0.671573 1.5,1.5 v 30.15 c 0,0.828427 -0.671573,1.5 -1.5,1.5 z" class="cls-1" />
  <path d="M52,38.59a1.5,1.5,0,0,1-1.5-1.5V3H24.13V6a1.5,1.5,0,0,1-1.5,1.5H4.84a1.5,1.5,0,0,1,0-3H21.13V1.5A1.5,1.5,0,0,1,22.63,0H52a1.5,1.5,0,0,1,1.5,1.5V37.09A1.5,1.5,0,0,1,52,38.59Z" class="cls-1" />
</svg>
