<svg id="Calque_1" data-name="Calque 1" xmlns="http://www.w3.org/2000/svg" viewBox="0 0 38.28 34.46"><defs><style>.cls-1{fill:#242d3c;}</style></defs><title>Pictos_v3_EXPORT</title><path class="cls-1" d="M12.47,15.31H1.11A1.11,1.11,0,0,1,0,14.2V1.84A1.11,1.11,0,0,1,1.11.73H12.47a1.11,1.11,0,0,1,0,2.22H2.22V13.09H12.47a1.11,1.11,0,1,1,0,2.22Z"/><path class="cls-1" d="M21.48,9.63h-2a1.11,1.11,0,1,1,0-2.22h2a1.11,1.11,0,0,1,0,2.22Z"/><path class="cls-1" d="M12.47,34.46H1.11A1.12,1.12,0,0,1,0,33.34V21a1.11,1.11,0,0,1,1.11-1.11H12.47a1.12,1.12,0,0,1,0,2.23H2.22V32.23H12.47a1.12,1.12,0,0,1,0,2.23Z"/><path class="cls-1" d="M34.48,27.78H20a1.12,1.12,0,0,1,0-2.23H34.48a1.12,1.12,0,0,1,0,2.23Z"/><path class="cls-1" d="M10.58,30.67a1.11,1.11,0,0,1-.79-.33L6,26.56A1.11,1.11,0,0,1,7.58,25l3,3,4.89-4.89a1.12,1.12,0,0,1,1.57,0,1.1,1.1,0,0,1,0,1.57l-5.68,5.68A1.09,1.09,0,0,1,10.58,30.67Z"/><path class="cls-1" d="M10.58,11.52a1.1,1.1,0,0,1-.79-.32L6,7.41A1.11,1.11,0,0,1,7.58,5.84l3,3L15.47,4A1.11,1.11,0,0,1,17,5.52L11.36,11.2A1.08,1.08,0,0,1,10.58,11.52Z"/><path class="cls-1" d="M38.28,15.82V1.22A1.21,1.21,0,0,0,37.06,0H22.46a1.22,1.22,0,0,0-1.22,1.22v14.6A1.22,1.22,0,0,0,22.46,17h14.6A1.22,1.22,0,0,0,38.28,15.82Zm-3.65-7.3a1.22,1.22,0,0,1-1.22,1.22H31v2.43a1.22,1.22,0,1,1-2.44,0V9.74H26.11a1.22,1.22,0,1,1,0-2.44h2.43V4.87a1.22,1.22,0,1,1,2.44,0V7.3h2.43A1.22,1.22,0,0,1,34.63,8.52Z"/></svg>