<svg id="Calque_1" data-name="Calque 1" xmlns="http://www.w3.org/2000/svg" viewBox="0 0 48.22 48.22"><defs><style>.cls-1{fill:#242d3c;}</style></defs><title>Pictos_v3_EXPORT</title><path class="cls-1" d="M47.58,47.75h-19v-.5A10.07,10.07,0,0,1,36,37.54a6.25,6.25,0,1,1,5.48,0,10.14,10.14,0,0,1,6.08,4.81l.06.11Z"/><path class="cls-1" d="M47.11,48.22h-46A1.11,1.11,0,0,1,0,47.11v-29a1.12,1.12,0,0,1,.45-.89l23-17a1.11,1.11,0,0,1,1.32,0l23,17a1.09,1.09,0,0,1,.45.89v29A1.1,1.1,0,0,1,47.11,48.22ZM2.22,46H46V18.67L24.11,2.49,2.22,18.67Z"/><path class="cls-1" d="M22.61,48.22h-12A1.11,1.11,0,0,1,9.5,47.11V23.61a1.11,1.11,0,0,1,1.11-1.11h12a1.11,1.11,0,0,1,1.11,1.11v23.5A1.1,1.1,0,0,1,22.61,48.22ZM11.72,46H21.5V24.72H11.72Z"/></svg>