<svg id="Calque_1" data-name="Calque 1" xmlns="http://www.w3.org/2000/svg" viewBox="0 0 57.83 55.98"><defs><style>.cls-1{fill:#242d3c;}</style></defs><title>Pictos_v3_EXPORT</title><path class="cls-1" d="M56.72,56H1.11A1.11,1.11,0,0,1,0,54.87V23.73a1.12,1.12,0,0,1,1.11-1.12H56.72a1.11,1.11,0,0,1,1.11,1.12V54.87A1.11,1.11,0,0,1,56.72,56ZM2.22,53.76H55.61V24.84H2.22Z"/><path class="cls-1" d="M1.11,23.61,29.2,44.86,56.72,23.61S2,23,1.11,23.61Z"/><path class="cls-1" d="M1.11,23.47A1.09,1.09,0,0,1,.23,23a1.11,1.11,0,0,1,.21-1.56L28.52.23a1.13,1.13,0,0,1,1.36,0L57.4,21.48A1.11,1.11,0,1,1,56,23.24L29.19,2.51,1.78,23.25A1.1,1.1,0,0,1,1.11,23.47Z"/></svg>