<svg id="Calque_1" data-name="Calque 1" xmlns="http://www.w3.org/2000/svg" viewBox="0 0 38.22 38.22"><defs><style>.cls-1{fill:#242d3c;}</style></defs><title>Pictos_v3_EXPORT</title><path class="cls-1" d="M6.11,6.11v26h26v-26Zm22.48,9.48L17.75,26.43a1.66,1.66,0,0,1-1.19.49,1.64,1.64,0,0,1-1.18-.49l-4.14-4.14a1.67,1.67,0,0,1,2.37-2.36l2.95,2.95,9.66-9.66a1.68,1.68,0,1,1,2.37,2.37Z"/><path class="cls-1" d="M37.11,38.22h-36A1.11,1.11,0,0,1,0,37.11v-36A1.11,1.11,0,0,1,1.11,0h36a1.11,1.11,0,0,1,1.11,1.11v36A1.1,1.1,0,0,1,37.11,38.22ZM2.22,36H36V2.22H2.22Z"/></svg>