<svg id="Calque_1" data-name="Calque 1" xmlns="http://www.w3.org/2000/svg" viewBox="0 0 55.61 58.15"><defs><style>.cls-1{fill:#242d3c;}</style></defs><title>Pictos_v3_EXPORT</title><path class="cls-1" d="M27.8,25.81a9,9,0,1,1,9.05-9A9,9,0,0,1,27.8,25.81Z"/><path class="cls-1" d="M27.8,44.83h0a1.11,1.11,0,0,1-.9-.47L14.46,26.93A17.33,17.33,0,0,1,11,16.77a16.78,16.78,0,0,1,33.55,0,17.54,17.54,0,0,1-3.43,10.16L28.71,44.36A1.13,1.13,0,0,1,27.8,44.83Zm0-42.61A14.56,14.56,0,0,0,13.26,16.77a15.12,15.12,0,0,0,3,8.87L27.8,41.8,39.34,25.64a15.31,15.31,0,0,0,3-8.87A14.56,14.56,0,0,0,27.8,2.22Z"/><rect class="cls-1" x="20.6" y="46.44" width="14.41" height="2.06"/><path class="cls-1" d="M7.23,34.71A7.23,7.23,0,0,0,0,41.94a7.58,7.58,0,0,0,1.5,4.41l5.73,8,5.74-8a7.58,7.58,0,0,0,1.5-4.41A7.24,7.24,0,0,0,7.23,34.71Z"/><rect class="cls-1" x="3.67" y="56.09" width="7.14" height="2.06"/><path class="cls-1" d="M48.38,34.71a7.24,7.24,0,0,0-7.24,7.23,7.58,7.58,0,0,0,1.5,4.41l5.74,8,5.73-8a7.51,7.51,0,0,0,1.5-4.41A7.23,7.23,0,0,0,48.38,34.71Z"/><rect class="cls-1" x="44.81" y="56.09" width="7.13" height="2.06"/></svg>