<svg id="Calque_1" data-name="Calque 1" xmlns="http://www.w3.org/2000/svg" viewBox="0 0 42.26 44.49"><defs><style>.cls-1{fill:#242d3c;}</style></defs><title>Pictos_v3_EXPORT</title><path class="cls-1" d="M21.13,36a1.18,1.18,0,0,1-.55-.14l-10.42-6a1.11,1.11,0,0,1-.56-1v-12a1.11,1.11,0,0,1,.56-1l10.42-6a1.1,1.1,0,0,1,1.11,0l10.42,6a1.12,1.12,0,0,1,.55,1v12a1.12,1.12,0,0,1-.55,1l-10.42,6A1.22,1.22,0,0,1,21.13,36Zm-9.31-7.77,9.31,5.38,9.31-5.38V17.48L21.13,12.1l-9.31,5.38Zm19.73.65h0Z"/><path class="cls-1" d="M21.13,41.15A1.11,1.11,0,0,1,20,40V22.85a1.11,1.11,0,0,1,.57-1l15.47-8.6a1.11,1.11,0,0,1,1.08,2l-14.9,8.28V40A1.11,1.11,0,0,1,21.13,41.15Z"/><path class="cls-1" d="M21.13,11.93A1.11,1.11,0,0,1,20,10.82V5.56a1.11,1.11,0,1,1,2.22,0v5.26A1.11,1.11,0,0,1,21.13,11.93Z"/><path class="cls-1" d="M21.13,24a1.06,1.06,0,0,1-.54-.14L5.12,15.23a1.11,1.11,0,0,1-.43-1.51,1.12,1.12,0,0,1,1.51-.44l15.47,8.6A1.11,1.11,0,0,1,21.13,24Z"/><path class="cls-1" d="M5.66,32.56a1.12,1.12,0,0,1-.54-2.09l5.15-2.86a1.11,1.11,0,1,1,1.08,1.95L6.2,32.42A1.14,1.14,0,0,1,5.66,32.56Z"/><path class="cls-1" d="M36.6,32.56a1.17,1.17,0,0,1-.54-.14l-5.4-3a1.11,1.11,0,1,1,1.08-1.94l5.4,3a1.12,1.12,0,0,1-.54,2.09Z"/><rect class="cls-1" y="8.9" width="6.67" height="6.67" rx="3.34" ry="3.34"/><rect class="cls-1" y="28.92" width="6.67" height="6.67" rx="3.34" ry="3.34"/><rect class="cls-1" x="35.59" y="8.9" width="6.67" height="6.67" rx="3.34" ry="3.34"/><rect class="cls-1" x="35.59" y="28.92" width="6.67" height="6.67" rx="3.34" ry="3.34"/><rect class="cls-1" x="17.8" width="6.67" height="6.67" rx="3.34" ry="3.34"/><rect class="cls-1" x="17.8" y="37.81" width="6.67" height="6.67" rx="3.34" ry="3.34"/></svg>