<svg id="Calque_1" data-name="Calque 1" xmlns="http://www.w3.org/2000/svg" viewBox="0 0 47.71 47.68"><defs><style>.cls-1{fill:#242d3c;}</style></defs><title>Pictos_v3_EXPORT</title><path class="cls-1" d="M34.79,2.22l8.46,4.86-8.46,4.85H2.22V2.22H34.79M35.39,0H0V14.16H35.39L47.71,7.08,35.39,0Z"/><path class="cls-1" d="M33.92,13.35a1.12,1.12,0,0,1-1.11-1.12V1.11a1.11,1.11,0,1,1,2.22,0V12.23A1.11,1.11,0,0,1,33.92,13.35Z"/><path class="cls-1" d="M5,13.35a1.12,1.12,0,0,1-1.12-1.12V1.11a1.12,1.12,0,0,1,2.23,0V12.23A1.12,1.12,0,0,1,5,13.35Z"/><polygon class="cls-1" points="46.04 7.79 40.48 4.58 40.48 11 46.04 7.79"/><path class="cls-1" d="M35.66,14l-6.19,7.18a9.78,9.78,0,0,0-7.85-4.06c-6.09,0-9.88,4.47-9.88,10.77s3.79,10.81,9.88,10.81a9.8,9.8,0,0,0,7.85-4l6.14,7.17c-3.9,4.32-8.38,5.88-14,5.88C10,47.68,1.7,39.15,1.7,27.87S10,8.1,21.62,8.1C27.86,8.1,31.86,10,35.66,14Z"/></svg>