<svg id="Calque_1" data-name="Calque 1" xmlns="http://www.w3.org/2000/svg" viewBox="0 0 55.61 55.61"><defs><style>.cls-1{fill:#242d3c;}</style></defs><title>Pictos_v3_EXPORT</title><path class="cls-1" d="M31,2.35a27,27,0,0,1,3.92.8L35.77,7a2.86,2.86,0,0,0,1.52,1.95,3,3,0,0,0,1.28.3A2.77,2.77,0,0,0,39.74,9l3.55-1.59a27.12,27.12,0,0,1,3,2.67l-1.17,3.7a2.87,2.87,0,0,0,2.44,3.72l3.88.39a24.89,24.89,0,0,1,1.26,3.8l-2.88,2.63a2.91,2.91,0,0,0-.92,2.3,2.85,2.85,0,0,0,1.18,2.14L53.26,31a27.1,27.1,0,0,1-.8,3.91l-3.83.84a2.88,2.88,0,0,0-1.94,1.51,2.83,2.83,0,0,0,0,2.46l1.59,3.55a27.12,27.12,0,0,1-2.67,3l-3.71-1.17a2.77,2.77,0,0,0-2.43.34,2.86,2.86,0,0,0-1.28,2.1l-.39,3.88A24.89,24.89,0,0,1,34,52.7l-2.63-2.87a2.84,2.84,0,0,0-2.12-.93H29a2.87,2.87,0,0,0-2.16,1.18l-2.29,3.18a27.1,27.1,0,0,1-3.91-.8l-.84-3.83A2.9,2.9,0,0,0,17,46.38a2.77,2.77,0,0,0-1.17.26l-3.55,1.59a26.14,26.14,0,0,1-3-2.67l1.17-3.7a2.85,2.85,0,0,0-.34-2.44,2.82,2.82,0,0,0-2.1-1.27l-3.88-.4A24.89,24.89,0,0,1,2.91,34l2.88-2.63a2.88,2.88,0,0,0-.26-4.44L2.35,24.6a26.69,26.69,0,0,1,.8-3.92L7,19.84a2.87,2.87,0,0,0,1.94-1.52A2.81,2.81,0,0,0,9,15.87L7.38,12.32a26.14,26.14,0,0,1,2.67-3l3.71,1.17a2.82,2.82,0,0,0,.86.14,2.87,2.87,0,0,0,1.57-.48,2.82,2.82,0,0,0,1.27-2.1l.4-3.88a24.53,24.53,0,0,1,3.8-1.26L24.3,5.79a2.85,2.85,0,0,0,2.1.93h.21a2.86,2.86,0,0,0,2.12-1.18L31,2.35M30,0l-3,4.23a.63.63,0,0,1-.48.26h0a.61.61,0,0,1-.47-.21L22.43.45l-.79.18a27.93,27.93,0,0,0-5.12,1.69l-.74.33-.53,5.18A.65.65,0,0,1,15,8.3a.69.69,0,0,1-.35.1l-.2,0L9.48,6.81l-.59.55a28.11,28.11,0,0,0-3.59,4l-.48.65,2.12,4.73a.64.64,0,0,1-.44.89L1.4,18.79l-.24.78A28,28,0,0,0,.09,24.84l-.09.8,4.23,3.05a.64.64,0,0,1,.26.48.62.62,0,0,1-.21.51L.45,33.18.63,34A28.54,28.54,0,0,0,2.32,39.1l.33.74,5.18.52a.68.68,0,0,1,.47.28.65.65,0,0,1,.07.55L6.81,46.13l.55.59a28.12,28.12,0,0,0,4,3.6l.65.47,4.73-2.12a.52.52,0,0,1,.26-.06.68.68,0,0,1,.29.07.6.6,0,0,1,.33.43l1.13,5.1.78.24a28.16,28.16,0,0,0,5.27,1.08l.8.08,3.05-4.23a.63.63,0,0,1,.48-.26h0a.64.64,0,0,1,.48.21l3.5,3.83L34,55a27.93,27.93,0,0,0,5.12-1.69l.74-.33.53-5.18a.64.64,0,0,1,.63-.57l.19,0,4.94,1.56.6-.55a28.11,28.11,0,0,0,3.59-4l.48-.65-2.12-4.73a.63.63,0,0,1,0-.55.6.6,0,0,1,.43-.33l5.1-1.13.24-.78a28.14,28.14,0,0,0,1.07-5.27l.09-.8-4.23-3a.63.63,0,0,1-.26-.48.59.59,0,0,1,.21-.5l3.83-3.51L55,21.64a28.28,28.28,0,0,0-1.69-5.13L53,15.78l-5.18-.53a.65.65,0,0,1-.47-.28.64.64,0,0,1-.07-.54L48.8,9.48l-.55-.59a28.11,28.11,0,0,0-4-3.59l-.65-.48L38.83,6.94a.52.52,0,0,1-.26.06.64.64,0,0,1-.29-.07.63.63,0,0,1-.34-.43L36.82,1.4,36,1.16A28.14,28.14,0,0,0,30.77.09L30,0Z"/><path class="cls-1" d="M27.56,11.37a16.49,16.49,0,0,0-3.9,32.52c0-5.16,0-3.24,0-8.49a.41.41,0,0,0-.42-.41.41.41,0,0,0-.41.41c0,3.57,0-.74,0,2.68a1.39,1.39,0,1,1-2.78,0V27.39c0-2.07,1.3-4.29,3.58-4.56h7.87c2.6,0,4.07,2.34,4.07,4.56V38.11a1.39,1.39,0,1,1-2.78,0c0-3.13,0,.68,0-2.68a.42.42,0,0,0-.43-.41.41.41,0,0,0-.41.41v8.36a16.49,16.49,0,0,0-4.41-32.39Zm.26,10.89a3.47,3.47,0,1,1,3.48-3.47A3.47,3.47,0,0,1,27.82,22.26Z"/></svg>