<svg id="Calque_1" data-name="Calque 1" xmlns="http://www.w3.org/2000/svg" viewBox="0 0 55.61 55.16"><defs><style>.cls-1{fill:#242d3c;}</style></defs><title>Pictos_v3_EXPORT</title><path class="cls-1" d="M55.61,15.57H0V0H55.61ZM2.22,13.35H53.39V2.22H2.22Z"/><rect class="cls-1" x="6.67" y="6.67" width="2.22" height="2.22"/><rect class="cls-1" x="11.12" y="6.67" width="2.22" height="2.22"/><rect class="cls-1" x="15.57" y="6.67" width="2.22" height="2.22"/><circle class="cls-1" cx="38.93" cy="7.79" r="2.22"/><circle class="cls-1" cx="45.6" cy="7.79" r="2.22"/><path class="cls-1" d="M0,19.8V35.37H55.61V19.8Zm8.9,8.89H6.67V26.47H8.9Zm4.45,0H11.12V26.47h2.23Zm4.45,0H15.57V26.47H17.8Zm21.13,1.12a2.23,2.23,0,1,1,2.22-2.23A2.23,2.23,0,0,1,38.93,29.81Zm6.67,0a2.23,2.23,0,1,1,2.22-2.23A2.22,2.22,0,0,1,45.6,29.81Z"/><path class="cls-1" d="M55.61,55.16H0V39.59H55.61ZM2.22,52.94H53.39V41.81H2.22Z"/><rect class="cls-1" x="6.67" y="46.26" width="2.22" height="2.22"/><rect class="cls-1" x="11.12" y="46.26" width="2.22" height="2.22"/><rect class="cls-1" x="15.57" y="46.26" width="2.22" height="2.22"/><circle class="cls-1" cx="38.93" cy="47.38" r="2.22"/><circle class="cls-1" cx="45.6" cy="47.38" r="2.22"/></svg>