<svg id="Calque_1" data-name="Calque 1" xmlns="http://www.w3.org/2000/svg" viewBox="0 0 44.49 38.93"><defs><style>.cls-1{fill:#242d3c;}</style></defs><title>Pictos_v3_EXPORT</title><path class="cls-1" d="M5.56,20.36a1.11,1.11,0,0,1-1.11-1.11V1.11a1.11,1.11,0,0,1,2.22,0V19.25A1.11,1.11,0,0,1,5.56,20.36Z"/><path class="cls-1" d="M27.81,9.75a1.12,1.12,0,0,1-1.12-1.11V1.11a1.12,1.12,0,0,1,2.23,0V8.64A1.11,1.11,0,0,1,27.81,9.75Z"/><path class="cls-1" d="M38.93,15.06A1.11,1.11,0,0,1,37.82,14V1.11a1.11,1.11,0,1,1,2.22,0V14A1.11,1.11,0,0,1,38.93,15.06Z"/><path class="cls-1" d="M16.68,15.06A1.11,1.11,0,0,1,15.57,14V1.11a1.12,1.12,0,0,1,2.23,0V14A1.12,1.12,0,0,1,16.68,15.06Z"/><path class="cls-1" d="M7.58,25.67h-4A3.55,3.55,0,0,1,0,22.13v-.45a3.55,3.55,0,0,1,3.54-3.54h4a3.55,3.55,0,0,1,3.54,3.54v.45A3.55,3.55,0,0,1,7.58,25.67Zm-4-5.31a1.33,1.33,0,0,0-1.32,1.32v.45a1.32,1.32,0,0,0,1.32,1.31h4A1.32,1.32,0,0,0,8.9,22.13v-.45a1.32,1.32,0,0,0-1.32-1.32Z"/><path class="cls-1" d="M18.7,20.36h-4a3.55,3.55,0,0,1-3.54-3.54v-.45a3.55,3.55,0,0,1,3.54-3.54h4a3.54,3.54,0,0,1,3.54,3.54v.45A3.54,3.54,0,0,1,18.7,20.36Zm-4-5.3a1.31,1.31,0,0,0-1.31,1.31v.45a1.32,1.32,0,0,0,1.31,1.32h4A1.32,1.32,0,0,0,20,16.82v-.45a1.32,1.32,0,0,0-1.32-1.31Z"/><path class="cls-1" d="M41,20.36h-4a3.55,3.55,0,0,1-3.54-3.54v-.45a3.55,3.55,0,0,1,3.54-3.54h4a3.55,3.55,0,0,1,3.54,3.54v.45A3.55,3.55,0,0,1,41,20.36Zm-4-5.3a1.32,1.32,0,0,0-1.32,1.31v.45a1.32,1.32,0,0,0,1.32,1.32h4a1.32,1.32,0,0,0,1.31-1.32v-.45A1.31,1.31,0,0,0,41,15.06Z"/><rect class="cls-1" x="23.36" y="8.64" width="8.9" height="5.3" rx="2.43" ry="2.43"/><path class="cls-1" d="M29.83,15.06h-4a3.55,3.55,0,0,1-3.55-3.54v-.45a3.55,3.55,0,0,1,3.55-3.54h4a3.55,3.55,0,0,1,3.54,3.54v.45A3.55,3.55,0,0,1,29.83,15.06Zm-4-5.31a1.32,1.32,0,0,0-1.32,1.32v.45a1.32,1.32,0,0,0,1.32,1.31h4a1.31,1.31,0,0,0,1.31-1.31v-.45a1.32,1.32,0,0,0-1.31-1.32Z"/><path class="cls-1" d="M5.56,38.93a1.12,1.12,0,0,1-1.11-1.12V24.55a1.11,1.11,0,0,1,2.22,0V37.81A1.11,1.11,0,0,1,5.56,38.93Z"/><path class="cls-1" d="M16.68,38.93a1.12,1.12,0,0,1-1.11-1.12V19.25a1.12,1.12,0,0,1,2.23,0V37.81A1.12,1.12,0,0,1,16.68,38.93Z"/><path class="cls-1" d="M27.81,38.93a1.12,1.12,0,0,1-1.12-1.12V14a1.12,1.12,0,1,1,2.23,0V37.81A1.12,1.12,0,0,1,27.81,38.93Z"/><path class="cls-1" d="M38.93,38.93a1.11,1.11,0,0,1-1.11-1.12V19.25a1.11,1.11,0,0,1,2.22,0V37.81A1.12,1.12,0,0,1,38.93,38.93Z"/></svg>