<svg id="Calque_1" data-name="Calque 1" xmlns="http://www.w3.org/2000/svg" viewBox="0 0 46.71 46.71"><defs><style>.cls-1{fill:#242d3c;}</style></defs><title>Pictos_v3_EXPORT</title><path class="cls-1" d="M21.77,22.7V3.17a21.77,21.77,0,0,0-16.47,36Z"/><path class="cls-1" d="M41.2,27.16a19.55,19.55,0,0,1-30.29,14l14-14H41.2m2.35-2.22Zm0,0H24L7.54,41.41a21.77,21.77,0,0,0,36-16.47Z"/><path class="cls-1" d="M28.4,14.61l10-10c-.52-.41-1.07-.8-1.63-1.16L26.58,13.64A11.72,11.72,0,0,1,28.4,14.61Z"/><path class="cls-1" d="M24.94,0V2.8L27.57.16A22.79,22.79,0,0,0,24.94,0Z"/><path class="cls-1" d="M33.07,20.14,43.23,10c-.36-.56-.75-1.11-1.16-1.63l-10,10A12.3,12.3,0,0,1,33.07,20.14Z"/><path class="cls-1" d="M29.54.49l-4.6,4.6v2.8l6.8-6.8A20.39,20.39,0,0,0,29.54.49Z"/><path class="cls-1" d="M31.12,17,41,7.09c-.45-.48-.91-1-1.4-1.4l-9.9,9.9A13.22,13.22,0,0,1,31.12,17Z"/><path class="cls-1" d="M46.55,19.14l-2.64,2.63h2.8A22.79,22.79,0,0,0,46.55,19.14Z"/><path class="cls-1" d="M45.62,15l-6.8,6.8h2.8l4.6-4.6A20.39,20.39,0,0,0,45.62,15Z"/><path class="cls-1" d="M44.09,11.41,33.73,21.77h2.8L45,13.3A20.55,20.55,0,0,0,44.09,11.41Z"/><path class="cls-1" d="M33.42,1.71l-8.48,8.48V13L35.3,2.62C34.69,2.29,34.06,2,33.42,1.71Z"/></svg>