<svg id="Calque_1" data-name="Calque 1" xmlns="http://www.w3.org/2000/svg" viewBox="0 0 51.05 51.06"><defs><style>.cls-1{fill:#242d3c;}</style></defs><title>Pictos_v3_EXPORT</title><path class="cls-1" d="M45.08,27V24l-4.25-.85a15.74,15.74,0,0,0-.89-3.3L43.2,17,41.72,14.4l-4.13,1.39a15.38,15.38,0,0,0-2.42-2.42l1.39-4.13L34,7.76,31.11,11a15.49,15.49,0,0,0-3.29-.89L27,5.87H24l-.86,4.27a15.82,15.82,0,0,0-3.29.89L17,7.76,14.39,9.24l1.39,4.13a15.76,15.76,0,0,0-2.41,2.42L9.24,14.4,7.76,17,11,19.84a15.2,15.2,0,0,0-.88,3.29L5.87,24v3l4.27.86A14.67,14.67,0,0,0,11,31.12L7.76,34l1.48,2.56,4.13-1.39a15.76,15.76,0,0,0,2.41,2.42l-1.39,4.13L17,43.2l2.87-3.27a15.91,15.91,0,0,0,3.3.89L24,45.09h3l.86-4.28a15.14,15.14,0,0,0,3.3-.88L34,43.2l2.56-1.48-1.4-4.13a15.45,15.45,0,0,0,2.43-2.42l4.13,1.39L43.2,34l-3.27-2.87a15.85,15.85,0,0,0,.9-3.31ZM25.47,33.65a8.17,8.17,0,1,1,8.17-8.17A8.16,8.16,0,0,1,25.47,33.65Z"/><path class="cls-1" d="M25.5,51.06a1.11,1.11,0,1,1,0-2.22c.72,0,1.44,0,2.15-.1a1.12,1.12,0,0,1,1.21,1,1.11,1.11,0,0,1-1,1.21c-.77.07-1.56.11-2.35.11Zm-6.7-.92a1,1,0,0,1-.3,0,23.55,23.55,0,0,1-2.24-.75,1.11,1.11,0,1,1,.8-2.07,21.39,21.39,0,0,0,2.05.68,1.11,1.11,0,0,1-.31,2.18Zm15.53-.73a1.11,1.11,0,0,1-.4-2.15c.66-.26,1.32-.55,2-.87a1.11,1.11,0,0,1,1,2c-.7.35-1.43.67-2.16.95A1,1,0,0,1,34.33,49.41ZM10.75,46.14a1.12,1.12,0,0,1-.67-.22c-.62-.47-1.23-1-1.81-1.51a1.11,1.11,0,1,1,1.49-1.64c.54.48,1.1.94,1.66,1.37a1.11,1.11,0,0,1-.67,2ZM42,44.67a1.09,1.09,0,0,1-.82-.36,1.11,1.11,0,0,1,.06-1.57Q42,42,42.74,41.21a1.11,1.11,0,0,1,1.64,1.5c-.52.57-1.08,1.14-1.66,1.67A1.16,1.16,0,0,1,42,44.67ZM4.69,39.51a1.11,1.11,0,0,1-1-.52c-.41-.67-.8-1.36-1.15-2.06a1.11,1.11,0,0,1,2-1,21.51,21.51,0,0,0,1,1.88,1.1,1.1,0,0,1-.35,1.53A1.09,1.09,0,0,1,4.69,39.51Zm42.69-2a1.12,1.12,0,0,1-1-1.61c.32-.64.61-1.3.87-2a1.11,1.11,0,1,1,2.07.8,23.16,23.16,0,0,1-.95,2.16A1.13,1.13,0,0,1,47.38,37.5Zm-46-6.36a1.12,1.12,0,0,1-1.09-.91C.19,29.46.08,28.67,0,27.89a1.12,1.12,0,0,1,1-1.21,1.12,1.12,0,0,1,1.21,1c.07.7.17,1.42.3,2.13a1.13,1.13,0,0,1-.89,1.3Zm48.42-2.29h-.1a1.12,1.12,0,0,1-1-1.21c.07-.72.1-1.44.1-2.16v-.1a1.11,1.11,0,1,1,2.22,0v.1c0,.78,0,1.58-.1,2.36A1.12,1.12,0,0,1,49.84,28.85ZM1.41,22.15l-.2,0a1.11,1.11,0,0,1-.9-1.29c.15-.77.32-1.55.54-2.3a1.11,1.11,0,0,1,2.14.6c-.2.69-.36,1.4-.49,2.1A1.11,1.11,0,0,1,1.41,22.15ZM49,19.81A1.11,1.11,0,0,1,47.92,19c-.2-.69-.43-1.38-.69-2a1.11,1.11,0,1,1,2.07-.81c.28.73.54,1.48.76,2.24a1.11,1.11,0,0,1-.76,1.37A1.18,1.18,0,0,1,49,19.81Zm-44.36-6a1.13,1.13,0,0,1-.58-.16,1.12,1.12,0,0,1-.36-1.53c.41-.68.86-1.33,1.33-2A1.11,1.11,0,0,1,6.8,11.45C6.37,12,6,12.62,5.58,13.23A1.11,1.11,0,0,1,4.63,13.76Zm40.32-2a1.11,1.11,0,0,1-.89-.44c-.43-.57-.9-1.12-1.38-1.65a1.11,1.11,0,0,1,1.64-1.51c.53.58,1,1.19,1.51,1.81a1.11,1.11,0,0,1-.21,1.56A1.13,1.13,0,0,1,45,11.78ZM10.68,7.11a1.14,1.14,0,0,1-.89-.44A1.11,1.11,0,0,1,10,5.11,23.24,23.24,0,0,1,12,3.77a1.11,1.11,0,1,1,1.17,1.88c-.6.38-1.2.79-1.77,1.23A1.13,1.13,0,0,1,10.68,7.11Zm27.6-1.37a1.13,1.13,0,0,1-.58-.16,20.32,20.32,0,0,0-1.88-1,1.11,1.11,0,0,1,1-2c.7.35,1.4.73,2.07,1.15a1.1,1.1,0,0,1,.36,1.52A1.09,1.09,0,0,1,38.28,5.74ZM18.71,3.07A1.11,1.11,0,0,1,18.4.89,23.22,23.22,0,0,1,20.7.35a1.1,1.1,0,0,1,1.3.88,1.12,1.12,0,0,1-.89,1.3c-.7.13-1.4.3-2.09.5A1.15,1.15,0,0,1,18.71,3.07Zm11.18-.55h-.2c-.7-.13-1.42-.23-2.13-.29A1.11,1.11,0,0,1,27.75,0c.78.07,1.57.18,2.34.32a1.11,1.11,0,0,1-.2,2.2Z"/></svg>