<svg id="Calque_1" data-name="Calque 1" xmlns="http://www.w3.org/2000/svg" viewBox="0 0 56.72 60.59"><defs><style>.cls-1{fill:#242d3c;}</style></defs><title>Pictos_v3_EXPORT</title><path class="cls-1" d="M29.88,53.68h-.07a1.12,1.12,0,0,1-1-.77L28.19,51a.79.79,0,0,0-.75-.54H23.21a.78.78,0,0,0-.75.54l-.64,1.92a1.11,1.11,0,0,1-1,.76A1.08,1.08,0,0,1,19.76,53l-2.34-5a.79.79,0,0,0-.92-.43L4.8,50.67a6.79,6.79,0,0,0-2.92,1.64A1.11,1.11,0,0,1,.34,50.7a9.06,9.06,0,0,1,3.89-2.18l11.7-3.1a3,3,0,0,1,3.51,1.64l1.2,2.59a3,3,0,0,1,2.57-1.44h4.23A3,3,0,0,1,30,49.65l1.2-2.58a3,3,0,0,1,3.51-1.65l11.67,3.1a9.1,9.1,0,0,1,3.86,2.15,1.11,1.11,0,0,1-1.53,1.62,6.78,6.78,0,0,0-2.9-1.62l-11.67-3.1a.81.81,0,0,0-.92.43l-2.34,5A1.12,1.12,0,0,1,29.88,53.68Z"/><path class="cls-1" d="M25.29,44.43a12.78,12.78,0,0,1-5.11-1.06A22,22,0,0,1,14.53,40c-3-2.6-3.82-6.75-4-9a7.33,7.33,0,0,1-3.73-3.89,13,13,0,0,1-.38-4.36v-.11c0-.43,0-.9,0-1.39A4.46,4.46,0,0,1,7.7,18.08C7.07,12.38,7.07,9,7.68,7c1.25-4.06,5.79-5.68,9.61-5.55A10.32,10.32,0,0,1,22.94,0h1.13A36.48,36.48,0,0,1,35.76,1.53c3.12.86,8.14,4.12,7.13,16.29A5.83,5.83,0,0,1,44.19,21a15.8,15.8,0,0,1-.37,6.12A7.35,7.35,0,0,1,40.1,31c-.21,2.2-1,6.33-4.05,9a21.69,21.69,0,0,1-5.65,3.4A12.82,12.82,0,0,1,25.29,44.43ZM9.94,18.78a1.12,1.12,0,0,1-.34.56,2.4,2.4,0,0,0-1,1.91c0,.5,0,1,0,1.42v.11a12.13,12.13,0,0,0,.26,3.6A5.58,5.58,0,0,0,12,29.26a1.12,1.12,0,0,1,.67.95c.11,1.65.65,5.74,3.34,8.09a19.9,19.9,0,0,0,5.08,3,10.59,10.59,0,0,0,8.44,0,19.9,19.9,0,0,0,5.08-3c2.73-2.38,3.25-6.45,3.34-8.09a1.12,1.12,0,0,1,.67-.95,5.63,5.63,0,0,0,3.13-2.88,13.83,13.83,0,0,0,.24-5.2,3.58,3.58,0,0,0-1-2.2,1.34,1.34,0,0,1-.11-.14c-14.52-.14-19.58-2.25-21.3-3.93A18.34,18.34,0,0,1,9.94,18.78Zm11-5.72c.15.27,2.18,3.38,19.86,3.55.54-9.72-3.21-12.28-5.58-12.93a34.43,34.43,0,0,0-11-1.45H22.94a7.8,7.8,0,0,0-4.68,1.22,1.09,1.09,0,0,1-.74.21c-2.2-.16-6.64.47-7.71,4-.47,1.49-.48,4.42,0,8.94A16.49,16.49,0,0,0,19,12.43a1.11,1.11,0,0,1,1.88.63Zm0,.16Zm0,0Zm0,0h0Zm0,0Zm0,0Zm0,0Z"/><path class="cls-1" d="M49.13,60.59H1.74a1.12,1.12,0,0,1,0-2.23H49.13a1.12,1.12,0,0,1,0,2.23Z"/><path class="cls-1" d="M19.13,14s-5.64,2.5-4.75,3.12-5.87.62-5.87.62L8.14,8.5,10,5.37s3-2.32,1.88-1.75,5.65-1.68,5.65-1.68l3.84-.69,8.12-.12,8.37,2,4.49,5.59L42,15l-.25,3.21L27.13,16.61S21.21,14.5,21.63,15,19.13,14,19.13,14Z"/><path class="cls-1" d="M56.64,25.54a3.75,3.75,0,0,0-1-2.27c.87-9.22-2.69-11.64-4.93-12.26-1.94-.53-7.93-.82-9.21-1a26.29,26.29,0,0,1,.32,7.7h0c0,.16,0,.31,0,.47a4.75,4.75,0,0,1,1.34,2.89,15.26,15.26,0,0,1-.3,5.66A6.69,6.69,0,0,1,39,30.28c-.1,1.73-.66,6.19-3.72,8.86a17.68,17.68,0,0,1-3,2c.65.37,5.87.74,6.66,1.08a9.11,9.11,0,0,0,7.33,0,16.16,16.16,0,0,0,4.22-2.52c2.41-2.1,2.85-5.6,2.93-7A5.18,5.18,0,0,0,56.4,30,12,12,0,0,0,56.64,25.54Z"/><rect class="cls-1" x="18.67" y="25.63" width="3.87" height="2.26" rx="1.04" ry="1.04"/><rect class="cls-1" x="28.34" y="25.63" width="3.87" height="2.26" rx="1.04" ry="1.04"/></svg>