<svg id="Calque_1" data-name="Calque 1" xmlns="http://www.w3.org/2000/svg" viewBox="0 0 43.16 44.71"><defs><style>.cls-1{fill:#242d3c;}</style></defs><title>Pictos_v3_EXPORT</title><path class="cls-1" d="M21.58,40.26a1.11,1.11,0,0,1-1.11-1.11V18.68a1.11,1.11,0,0,1,2.22,0V39.15A1.1,1.1,0,0,1,21.58,40.26Z"/><path class="cls-1" d="M37.63,40.22a1.12,1.12,0,0,1-1.12-1.11l0-10.19H6.67V39.11a1.11,1.11,0,0,1-2.22,0V27.81a1.12,1.12,0,0,1,1.11-1.12h32a1.11,1.11,0,0,1,1.11,1.11l0,11.3a1.12,1.12,0,0,1-1.11,1.12Z"/><path class="cls-1" d="M31.59,18.59V1.43A1.43,1.43,0,0,0,30.16,0H13a1.43,1.43,0,0,0-1.43,1.43V18.59A1.43,1.43,0,0,0,13,20H30.16A1.43,1.43,0,0,0,31.59,18.59ZM27.3,10a1.43,1.43,0,0,1-1.43,1.43H23V14.3a1.43,1.43,0,0,1-2.86,0V11.44H17.29a1.43,1.43,0,0,1,0-2.86h2.86V5.72a1.43,1.43,0,1,1,2.86,0V8.58h2.86A1.43,1.43,0,0,1,27.3,10Z"/><path class="cls-1" d="M10,44.71H1.11A1.11,1.11,0,0,1,0,43.6V34.7a1.11,1.11,0,0,1,1.11-1.11H10a1.11,1.11,0,0,1,1.11,1.11v8.9A1.11,1.11,0,0,1,10,44.71ZM2.22,42.49H8.9V35.81H2.22Z"/><path class="cls-1" d="M26,44.71h-8.9A1.11,1.11,0,0,1,16,43.6V34.7a1.11,1.11,0,0,1,1.11-1.11H26a1.11,1.11,0,0,1,1.11,1.11v8.9A1.11,1.11,0,0,1,26,44.71Zm-7.79-2.22h6.68V35.81H18.24Z"/><path class="cls-1" d="M42.05,44.71h-8.9A1.11,1.11,0,0,1,32,43.6V34.7a1.11,1.11,0,0,1,1.11-1.11h8.9a1.11,1.11,0,0,1,1.11,1.11v8.9A1.11,1.11,0,0,1,42.05,44.71Zm-7.79-2.22h6.68V35.81H34.26Z"/></svg>